<svg width="13" height="13" viewBox="0 0 13 13" fill="none" xmlns="http://www.w3.org/2000/svg">
<path fill-rule="evenodd" clip-rule="evenodd" d="M2.32093 12.7129H9.6879C10.9674 12.7129 12.0083 11.6729 12.0083 10.3923V5.47641V3.02472C12.0083 1.7466 10.9674 0.70459 9.6879 0.70459H2.32093C1.04092 0.70459 0 1.7466 0 3.02472V5.47641V10.3923C0 11.6729 1.04092 12.7129 2.32093 12.7129ZM4.50381 6.70868C4.50381 5.87927 5.17558 5.20745 6.00392 5.20745C6.83325 5.20745 7.50502 5.87927 7.50502 6.70868C7.50502 7.53658 6.83325 8.2099 6.00392 8.2099C5.17558 8.2099 4.50381 7.53658 4.50381 6.70868ZM6.00392 9.71013C4.34676 9.71013 3.00322 8.36798 3.00322 6.70868C3.00322 6.15891 3.16178 5.65066 3.41938 5.20745H1.4826V10.0583C1.4826 10.6936 1.99881 11.2109 2.63357 11.2109H9.35427C9.98853 11.2109 10.5047 10.6936 10.5047 10.0583V5.20745H8.58897C8.84707 5.65066 9.00563 6.15891 9.00563 6.70868C9.00563 8.36798 7.66159 9.71013 6.00392 9.71013ZM10.5142 2.20939V2.40349V3.71062L9.00262 3.71462L8.99762 2.2144L10.3161 2.20939H10.5142Z" fill="#1C637C"/>
</svg>
