<svg width="13" height="13" viewBox="0 0 13 13" fill="none" xmlns="http://www.w3.org/2000/svg">
<path fill-rule="evenodd" clip-rule="evenodd" d="M2.32093 12.7129H9.6879C10.9674 12.7129 12.0083 11.6729 12.0083 10.3923V5.47641V3.02472C12.0083 1.7466 10.9674 0.70459 9.6879 0.70459H2.32093C1.04092 0.70459 0 1.7466 0 3.02472V5.47641V10.3923C0 11.6729 1.04092 12.7129 2.32093 12.7129ZM4.50391 6.70863C4.50391 5.87922 5.17568 5.2074 6.00401 5.2074C6.83334 5.2074 7.50511 5.87922 7.50511 6.70863C7.50511 7.53653 6.83334 8.20986 6.00401 8.20986C5.17568 8.20986 4.50391 7.53653 4.50391 6.70863ZM6.00399 9.71008C4.34682 9.71008 3.00328 8.36793 3.00328 6.70863C3.00328 6.15886 3.16184 5.65061 3.41945 5.2074H1.48267V10.0583C1.48267 10.6936 1.99887 11.2108 2.63363 11.2108H9.35433C9.98859 11.2108 10.5048 10.6936 10.5048 10.0583V5.2074H8.58903C8.84713 5.65061 9.00569 6.15886 9.00569 6.70863C9.00569 8.36793 7.66165 9.71008 6.00399 9.71008ZM10.5142 2.20935V2.40344V3.71058L9.00256 3.71458L8.99756 2.21435L10.3161 2.20935H10.5142Z" fill="black"/>
</svg>
