<svg width="25" height="24" viewBox="0 0 25 24" fill="none" xmlns="http://www.w3.org/2000/svg">
<path d="M25 14.6463V23.889H19.6417V15.2653C19.6417 13.099 18.8667 11.6206 16.9271 11.6206C15.4466 11.6206 14.5655 12.6169 14.1778 13.5807C14.0365 13.9253 14.0001 14.4049 14.0001 14.8872V23.889H8.63997C8.63997 23.889 8.71216 9.28335 8.63997 7.7701H13.9996V10.0549C13.9887 10.072 13.9746 10.0904 13.9643 10.107H13.9996V10.0549C14.7116 8.95814 15.9833 7.39142 18.8298 7.39142C22.3563 7.39136 25 9.69521 25 14.6463ZM3.03307 0C1.19938 0 0 1.20275 0 2.78442C0 4.33161 1.16468 5.57087 2.96193 5.57087H2.99773C4.86693 5.57087 6.02941 4.33184 6.02941 2.78442C5.99418 1.20275 4.86693 0 3.03307 0ZM0.318344 23.889H5.67642V7.7701H0.318344V23.889Z" fill="white"/>
</svg>
