<svg width="25" height="29" viewBox="0 0 25 29" fill="none" xmlns="http://www.w3.org/2000/svg">
<path d="M24.9775 6.9862C23.2567 6.61261 21.7691 5.6141 20.7583 4.23859C19.389 3.2231 18.3951 1.72872 18.0232 0H14.0338V20.7514C14.0338 23.1628 12.0865 25.1191 9.68607 25.1191C8.09708 25.1191 7 25.1191 5 23.5C3 21.8809 3.82709 20.8295 3.82709 19.2333C3.82709 16.8219 5.77445 14.8656 8.17484 14.8656C8.62449 14.8656 9.13499 14.9336 9.54407 15.0626V11.0244C4.25984 11.0991 0 15.426 0 20.7514C0 23.0507 0.419223 24.6979 2.12316 26.8308C3.82709 28.9637 5.88602 28.9637 8.17484 28.9637C13.5233 28.9637 17.8609 24.6062 17.8609 19.2333V8.24963C19.8015 9.8391 22.2796 10.7935 24.9775 10.7935V6.9862Z" fill="white"/>
</svg>
