<svg width="28" height="25" viewBox="0 0 28 25" fill="none" xmlns="http://www.w3.org/2000/svg">
<path d="M28 3.67841C26.9587 4.15148 25.8492 4.46504 24.6925 4.61729C25.8825 3.88141 26.7908 2.72504 27.2178 1.33123C26.1083 2.01635 24.8832 2.50029 23.5777 2.77035C22.5243 1.60854 21.0227 0.888977 19.3848 0.888977C16.2067 0.888977 13.6482 3.5606 13.6482 6.83579C13.6482 7.30704 13.6868 7.76016 13.7812 8.19154C9.009 7.95048 4.78625 5.58154 1.9495 1.97285C1.45425 2.86279 1.16375 3.88141 1.16375 4.97798C1.16375 7.03698 2.1875 8.86216 3.7135 9.91885C2.79125 9.90073 1.8865 9.62341 1.12 9.1866C1.12 9.20473 1.12 9.22829 1.12 9.25185C1.12 12.141 3.10975 14.5407 5.719 15.0935C5.25175 15.2259 4.7425 15.2893 4.214 15.2893C3.8465 15.2893 3.4755 15.2675 3.12725 15.1878C3.871 17.5422 5.9815 19.2732 8.491 19.3294C6.538 20.9117 4.05825 21.865 1.37375 21.865C0.903 21.865 0.4515 21.8433 0 21.7835C2.54275 23.4818 5.55625 24.4515 8.806 24.4515C19.369 24.4515 25.144 15.389 25.144 7.5336C25.144 7.27079 25.1353 7.01704 25.123 6.7651C26.2622 5.92773 27.2195 4.88191 28 3.67841Z" fill="white"/>
</svg>
