<svg width="15" height="26" viewBox="0 0 15 26" fill="none" xmlns="http://www.w3.org/2000/svg">
<path d="M14.2489 0.00540974L10.7476 0C6.8141 0 4.27207 2.51147 4.27207 6.39863V9.34883H0.751711C0.44751 9.34883 0.201172 9.58632 0.201172 9.87926V14.1538C0.201172 14.4467 0.447791 14.6839 0.751711 14.6839H4.27207V25.4698C4.27207 25.7628 4.51841 26 4.82261 26H9.41568C9.71988 26 9.96622 25.7625 9.96622 25.4698V14.6839H14.0823C14.3865 14.6839 14.6329 14.4467 14.6329 14.1538L14.6346 9.87926C14.6346 9.73861 14.5764 9.6039 14.4733 9.50436C14.3702 9.40483 14.2298 9.34883 14.0837 9.34883H9.96622V6.84791C9.96622 5.64587 10.2637 5.03565 11.8897 5.03565L14.2483 5.03484C14.5523 5.03484 14.7986 4.79735 14.7986 4.50469V0.535564C14.7986 0.243168 14.5525 0.00595071 14.2489 0.00540974Z" fill="white"/>
</svg>
