<svg width="230" height="86" viewBox="0 0 230 86" fill="none" xmlns="http://www.w3.org/2000/svg">
<g clip-path="url(#clip0_812_12)">
<path d="M96.1239 2.60968H86.3781V24.5286H96.0162C96.0162 24.5286 105.87 23.5335 105.87 13.5703C105.87 3.60477 96.1239 2.60968 96.1239 2.60968ZM94.7488 19.297H92.5001V7.71685H94.9983C94.9983 7.71685 100.284 8.46317 100.284 13.5703C100.284 18.6751 94.7488 19.297 94.7488 19.297Z" fill="#1081A9" stroke="#1C637C" stroke-miterlimit="10"/>
<path d="M108.368 2.60968H114.365V11.0777L121.238 2.60968H128.109L119.863 12.946L128.735 24.5286H121.113L114.24 15.8117V24.5286H108.368V2.60968Z" fill="#1081A9" stroke="#1C637C" stroke-miterlimit="10"/>
<path d="M155.098 10.207V3.73158C155.098 3.73158 151.973 1.73895 147.85 1.73895C143.727 1.73895 136.48 5.35105 136.48 13.5094C136.48 21.6677 142.602 25.4041 148.474 25.4041C154.346 25.4041 156.918 22.914 156.918 22.914V12.3289H146.952V16.9361H150.725V20.0506H146.954C146.954 20.0506 142.479 19.1799 142.479 13.5752C142.479 7.97048 147.977 7.09978 147.977 7.09978C152.849 7.09246 155.098 10.207 155.098 10.207Z" fill="#1081A9" stroke="#1C637C" stroke-miterlimit="10"/>
<path d="M160.096 2.60968H166.468V19.297H174.425V24.5286H160.096V2.60968Z" fill="#1081A9" stroke="#1C637C" stroke-miterlimit="10"/>
<path d="M186.459 1.73651L174.425 24.5285H180.711L182.02 21.6652H190.082L191.705 24.5285H197.829L186.459 1.73651ZM183.958 17.3044L186.126 11.5753L188.294 17.3044H183.958Z" fill="#1081A9" stroke="#1C637C" stroke-miterlimit="10"/>
<path d="M198.947 17.3044V23.9066C198.947 23.9066 202.451 25.4017 206.324 25.4017C210.198 25.4017 213.322 22.2871 213.322 17.68C213.322 11.5753 203.577 10.4582 203.577 7.71683C203.577 4.97545 208.825 6.22175 211.323 8.9607V3.23159C211.323 3.23159 209.319 1.8609 205.385 1.8609C201.45 1.8609 198.328 4.35351 198.328 7.71439C198.328 14.4386 207.7 16.1824 207.7 18.4238C207.7 20.6652 202.444 20.7896 198.947 17.3044Z" fill="#1081A9" stroke="#1C637C" stroke-miterlimit="10"/>
<path d="M166.894 30.2138L157.307 48.3718H162.316L163.358 46.0914H169.781L171.073 48.3718H175.952L166.894 30.2138ZM164.902 42.6159L166.629 38.0526L168.357 42.6159H164.902Z" fill="#1081A9" stroke="#1C637C" stroke-miterlimit="10"/>
<path d="M176.843 42.6159V47.8743C176.843 47.8743 179.436 48.7523 182.522 48.7523C185.607 48.7523 187.956 46.6328 187.956 42.9622C187.956 38.0989 180.527 37.1624 180.527 34.9771C180.527 32.7942 184.709 33.7844 186.698 35.9673V31.404C186.698 31.404 185.101 30.3138 181.969 30.3138C178.837 30.3138 176.346 32.2991 176.346 34.9771C176.346 40.333 183.811 41.7232 183.811 43.5085C183.811 45.2938 179.627 45.3914 176.843 42.6159Z" fill="#1081A9" stroke="#1C637C" stroke-miterlimit="10"/>
<path d="M215.505 17.3044V23.9066C215.505 23.9066 219.009 25.4017 222.882 25.4017C226.756 25.4017 229.88 22.2871 229.88 17.68C229.88 11.5753 220.134 10.4582 220.134 7.71683C220.134 4.97545 225.383 6.22175 227.881 8.9607V3.23159C227.881 3.23159 225.877 1.8609 221.943 1.8609C218.008 1.8609 214.886 4.35351 214.886 7.71439C214.886 14.4386 224.257 16.1824 224.257 18.4238C224.257 20.6652 218.999 20.7896 215.505 17.3044Z" fill="#1081A9" stroke="#1C637C" stroke-miterlimit="10"/>
<path d="M107.22 44.9036C107.22 44.9036 109.212 42.4963 109.212 39.755C107.712 39.694 107.005 39.794 105.505 39.7354C105.393 40.3452 104.999 41.7305 104.712 42.2842C104.265 41.7695 102.371 39.4672 102.217 39.3135C103.621 38.0209 104.751 37.0428 104.932 35.1453C105.121 33.1332 104.235 31.5625 102.76 30.6308C99.9018 28.826 95.1207 30.3601 94.6656 34.2844C94.4576 36.0624 94.9714 37.1233 96.2487 38.3843C93.2489 39.6598 92.3851 43.2719 93.31 45.5767C94.0367 47.3938 95.4314 48.5303 97.362 48.8791C99.2779 49.2254 102.828 49.0888 103.954 47.5694C103.968 47.5694 104.587 48.6279 104.587 48.6279H110.274L107.22 44.9036ZM99.8284 33.3722C100.636 33.3722 101.287 34.021 101.287 34.8234C101.287 35.6258 100.636 36.277 99.8284 36.277C99.0234 36.277 98.3725 35.6258 98.3725 34.8234C98.3725 34.021 99.0234 33.3722 99.8284 33.3722ZM99.6963 45.1207C99.1262 45.1207 98.698 45.0255 98.4875 44.8548C98.2135 44.6304 98.0398 44.3914 97.9566 44.1183C97.8171 43.667 97.8024 43.3939 97.8122 43.2451C97.8465 42.7402 97.9737 42.3183 98.2013 41.9598C98.2649 41.8598 98.5242 41.5671 98.6564 41.4232L101.304 44.8865C100.785 45.0426 100.252 45.1207 99.6963 45.1207Z" fill="#1081A9" stroke="#1C637C" stroke-miterlimit="10"/>
<path d="M115.177 30.882H120.176L123.673 38.9135L127.36 30.882H132.295L123.736 49.3766L115.177 30.882Z" fill="#1081A9" stroke="#1C637C" stroke-miterlimit="10"/>
<path d="M132.609 30.882V48.3694H144.165V43.7719H137.544V41.4671H142.854V37.2331L137.417 37.2941V35.177H143.915V30.882H132.609Z" fill="#1081A9" stroke="#1C637C" stroke-miterlimit="10"/>
<path d="M146.039 30.882V48.3694H157.309V43.7085H151.163V30.882H146.039Z" fill="#1081A9" stroke="#1C637C" stroke-miterlimit="10"/>
<path d="M203.202 36.7526V31.7089C203.202 31.7089 201.578 30.1065 198.331 30.1065C191.834 30.1065 188.834 34.9454 188.834 39.1843C188.834 43.4232 191.022 48.9572 198.331 48.9572C202.953 48.9572 203.515 46.7767 203.515 46.7767V42.1061C203.515 42.1061 200.643 44.2232 198.331 44.2232C196.018 44.2232 193.709 43.2988 193.709 39.1843C193.709 35.0698 196.894 34.5722 198.331 34.5722C200.452 34.5722 201.952 35.5063 203.202 36.7526Z" fill="#1081A9" stroke="#1C637C" stroke-miterlimit="10"/>
<path d="M213.32 30.2138C208.316 30.2138 204.262 34.2771 204.262 39.2916C204.262 44.3061 208.316 48.3694 213.32 48.3694C218.324 48.3694 222.381 44.3061 222.381 39.2916C222.381 34.2771 218.324 30.2138 213.32 30.2138ZM213.32 44.2158C211.01 44.2158 209.136 42.011 209.136 39.2916C209.136 36.5721 211.01 34.3673 213.32 34.3673C215.632 34.3673 217.506 36.5721 217.506 39.2916C217.506 42.011 215.632 44.2158 213.32 44.2158Z" fill="#1081A9" stroke="#1C637C" stroke-miterlimit="10"/>
<path d="M49.7686 4.22913H57.8897L75.8837 34.1185H67.7602L49.7686 4.22913Z" fill="#1081A9" stroke="#1C637C" stroke-width="0.9758" stroke-miterlimit="10"/>
<path d="M35.276 0.119507H43.397L64.0116 34.1185H55.8906L35.276 0.119507Z" fill="#1081A9" stroke="#1C637C" stroke-width="0.9758" stroke-miterlimit="10"/>
<path d="M47.7084 43.2719H85.003L88.8764 36.9843H53.7667L47.7084 43.2719Z" fill="#1C637C" stroke="#1081A9" stroke-width="0.9758" stroke-miterlimit="10"/>
<path d="M38.337 53.2351H69.1084L72.8839 47.1962H44.1458L38.337 53.2351Z" fill="#1C637C" stroke="#1081A9" stroke-width="0.8828" stroke-miterlimit="10"/>
<path d="M20.6562 19.9214L36.1495 4.9755L33.9009 1.3634L26.5286 11.329L20.6562 19.9214Z" fill="#D91F26" stroke="#9A1C1F" stroke-miterlimit="10"/>
<path d="M15.1483 34.1186L39.3989 10.0826L37.1503 6.47055L16.0341 27.8919L15.6083 30.8821L9.53775 37.2331L3.54056 45.7012L15.1483 34.1186Z" fill="#D91F26" stroke="#9A1C1F" stroke-miterlimit="10"/>
<path d="M18.273 38.9135L42.5235 14.8776L40.2724 11.2655L19.8316 31.8771L19.4083 34.8673L0.291168 54.3277H2.82364L18.273 38.9135Z" fill="#D91F26" stroke="#9A1C1F" stroke-miterlimit="10"/>
<path d="M24.0034 40.6671L45.3667 19.3653L43.3848 16.163L23.0369 36.6136L23.3942 39.0184L8.16263 54.3277H10.3941L24.0034 40.6671Z" fill="#D91F26" stroke="#9A1C1F" stroke-width="0.8836" stroke-miterlimit="10"/>
<path d="M29.7535 42.7476L48.2638 24.3066L46.3039 21.2921L26.854 40.7037L27.1647 42.7842L15.7845 54.3277H18.2069L29.7535 42.7476Z" fill="#D91F26" stroke="#9A1C1F" stroke-width="0.7652" stroke-miterlimit="10"/>
<path d="M32.494 47.5426L51.0043 29.1016L49.0419 26.0871L30.4019 44.6597L30.375 47.7499L23.7318 54.3277H25.9095L32.494 47.5426Z" fill="#D91F26" stroke="#9A1C1F" stroke-width="0.7652" stroke-miterlimit="10"/>
<path d="M36.1985 51.7083L54.0359 33.9112L52.1469 30.9991L34.1847 48.9279L34.1578 51.9107L31.7208 54.3277H33.6636L36.1985 51.7083Z" fill="#D91F26" stroke="#9A1C1F" stroke-width="0.738" stroke-miterlimit="10"/>
<path d="M16.8391 80.8782C18.1188 80.8782 19.3373 80.7002 20.4971 80.3392C21.6569 79.9807 22.7311 79.4978 23.7172 78.888C24.7032 78.2783 25.5988 77.5734 26.4038 76.7686C27.2088 75.9662 27.9013 75.115 28.4861 74.2199C29.0708 73.3248 29.5455 72.4126 29.9126 71.4882C30.2771 70.5639 30.5071 69.6785 30.5977 68.8322C30.6711 68.0859 30.6393 67.3908 30.5022 66.7469C30.3652 66.1006 30.0961 65.5421 29.6948 65.0689C29.2935 64.5957 28.7528 64.2226 28.0774 63.9494C27.4021 63.6763 26.5702 63.547 25.5841 63.5616C24.4512 63.5763 23.3404 63.7421 22.254 64.0567C21.1676 64.3714 20.1472 64.7762 19.1979 65.2713C18.2485 65.7664 17.375 66.3298 16.5798 66.9591C15.7845 67.5908 15.1165 68.2249 14.5782 68.8639C14.0399 69.5029 13.6411 70.12 13.3866 70.7126C13.1297 71.3077 13.0588 71.8199 13.1664 72.2516C12.3076 72.1516 11.6543 71.937 11.2065 71.6053C10.7587 71.276 10.4749 70.8931 10.3575 70.4541C10.2376 70.0175 10.2571 69.5614 10.4113 69.0883C10.5654 68.6151 10.8272 68.1932 11.1918 67.82C11.8867 67.103 12.7896 66.4298 13.9054 65.7981C15.0187 65.1665 16.2299 64.6177 17.5365 64.1518C18.8431 63.686 20.1913 63.3202 21.5786 63.0543C22.966 62.7909 24.2922 62.6641 25.5523 62.6787C27.2137 62.708 28.5864 62.8763 29.663 63.186C30.742 63.4958 31.5911 63.9104 32.2126 64.4348C32.8341 64.9591 33.2574 65.5762 33.4874 66.2859C33.7149 66.9957 33.8202 67.7615 33.803 68.5786C33.7663 69.5127 33.5608 70.4907 33.1864 71.5175C32.8121 72.5443 32.2762 73.5516 31.5837 74.5442C30.8888 75.5345 30.0496 76.4783 29.0611 77.3759C28.075 78.2734 26.9641 79.0587 25.7309 79.7343C24.4977 80.4099 23.1544 80.9514 21.701 81.3611C20.2476 81.7709 18.6987 81.9831 17.0544 81.9952C15.8849 82.0099 14.8156 81.9026 13.8466 81.6733C12.8777 81.444 12.0653 81.1245 11.4071 80.7172C10.7489 80.3099 10.2743 79.8246 9.98309 79.2661C9.69192 78.7075 9.62585 78.1051 9.79224 77.4588C9.86564 77.1442 10.0076 76.871 10.218 76.6417C10.4284 76.4125 10.6658 76.2369 10.93 76.1149C11.1943 75.993 11.483 75.9174 11.7937 75.8881C12.1045 75.8588 12.3957 75.8735 12.6697 75.932C12.4324 76.5491 12.3541 77.1515 12.4373 77.7393C12.5205 78.3271 12.7431 78.8539 13.1077 79.3197C13.4723 79.7856 13.9714 80.1612 14.6003 80.449C15.2364 80.7343 15.9803 80.8782 16.8391 80.8782ZM22.8975 64.0982C23.355 64.1275 23.7147 64.2201 23.979 64.3787C24.2432 64.5372 24.4268 64.7274 24.5271 64.9494C24.6274 65.1713 24.6641 65.4079 24.6372 65.6591C24.6103 65.9103 24.5418 66.142 24.4316 66.3591C23.8469 67.5639 23.2303 68.8224 22.5818 70.1346C21.9334 71.4468 21.2948 72.7297 20.6635 73.9857C20.0322 75.2418 19.4352 76.4174 18.8675 77.5124C18.2999 78.61 17.8154 79.5441 17.4141 80.3197C16.9199 80.2343 16.4721 80.1148 16.0708 79.9636C15.6695 79.8124 15.3588 79.6075 15.1386 79.3514C14.9184 79.0929 14.8131 78.7734 14.8229 78.3953C14.8327 78.0149 15.0015 77.5539 15.3294 77.0076C15.6035 76.5637 15.9191 76.0296 16.2739 75.4052C16.6311 74.7808 17.0177 74.1077 17.4386 73.3833C17.8595 72.6589 18.3023 71.8955 18.7672 71.0931C19.2321 70.2907 19.6995 69.4834 20.1644 68.6737C20.6293 67.8639 21.0966 67.0713 21.5615 66.2957C22.0338 65.5177 22.4766 64.7884 22.8975 64.0982Z" fill="black"/>
<path d="M35.7507 74.6174L38.0532 71.9492C38.107 71.8931 38.2269 71.7663 38.4104 71.5736C38.5939 71.3809 38.8166 71.176 39.0808 70.9614C39.3451 70.7468 39.624 70.5565 39.9177 70.3907C40.2088 70.2248 40.4927 70.1517 40.7667 70.1639C41.1313 70.1931 41.3613 70.2907 41.4518 70.4541C41.5424 70.6199 41.5791 70.8029 41.5619 71.0029C41.5424 71.2468 41.4298 71.5833 41.2194 72.015C41.009 72.4443 40.7765 72.9004 40.5196 73.3808C40.2627 73.8613 40.0033 74.3418 39.739 74.8223C39.4748 75.3027 39.2766 75.7076 39.1494 76.0369C38.8215 76.71 38.7163 77.1124 38.8337 77.2417C38.9512 77.371 39.2081 77.31 39.602 77.0588C39.9935 76.8076 40.4829 76.4125 41.0677 75.8759C41.6525 75.3393 42.247 74.7467 42.849 74.1003C42.849 74.115 42.8661 74.1686 42.9028 74.2613C42.9395 74.354 42.9542 74.4735 42.9444 74.6174C42.9346 74.7613 42.893 74.9271 42.8221 75.1125C42.7486 75.3003 42.6116 75.5003 42.411 75.7149C41.606 76.5466 40.8108 77.2319 40.0253 77.7685C39.2399 78.3051 38.4178 78.5758 37.5589 78.5758C37.1381 78.5758 36.7955 78.4661 36.5312 78.2417C36.267 78.0197 36.1789 77.649 36.2719 77.1344C36.289 76.9905 36.3624 76.7881 36.4921 76.5222C36.6193 76.2564 36.7661 75.971 36.9301 75.6613C37.094 75.354 37.258 75.0442 37.4243 74.7369C37.5883 74.4296 37.7351 74.1516 37.8623 73.9077C38.063 73.5491 38.1315 73.3589 38.0679 73.3369C38.0042 73.315 37.8843 73.376 37.7106 73.5199C37.5369 73.6638 37.346 73.8467 37.1356 74.0686C36.9252 74.2906 36.7833 74.4589 36.7099 74.5735C36.5631 74.7735 36.3844 75.0003 36.1765 75.2515C35.966 75.5027 35.7507 75.7613 35.5329 76.0271C35.3127 76.293 35.095 76.5588 34.8747 76.8222C34.6545 77.0881 34.4539 77.3344 34.2728 77.5636L33.8887 78.3587C33.6146 78.8904 33.3724 79.3124 33.162 79.627C32.9515 79.9416 32.746 80.1782 32.5453 80.3367C32.3447 80.4953 32.149 80.5953 31.9557 80.6367C31.7624 80.6782 31.5495 80.7001 31.3121 80.7001C31.0014 80.6855 30.791 80.5684 30.6809 80.3441C30.5708 80.1221 30.6075 79.8099 30.791 79.4075C31.0479 78.8343 31.3488 78.1929 31.6963 77.4832C32.0437 76.7734 32.4181 76.0417 32.8194 75.2881C33.2207 74.5345 33.6464 73.776 34.0942 73.0077C34.542 72.2418 34.9848 71.5199 35.4228 70.8468C35.6063 70.559 35.8388 70.3663 36.1226 70.2663C36.4065 70.1663 36.6805 70.12 36.9448 70.1273C37.209 70.1346 37.4292 70.1882 37.603 70.2882C37.7767 70.3882 37.8354 70.4882 37.7816 70.5882L35.7507 74.6174Z" fill="black"/>
<path d="M44.6865 80.4684C44.4296 80.5977 44.0871 80.6977 43.6589 80.7684C43.2282 80.8392 42.8098 80.8319 42.3987 80.7465C41.9877 80.6611 41.6255 80.4636 41.3172 80.1538C41.0065 79.8465 40.8328 79.3758 40.7961 78.7441C40.7594 78.1856 40.8597 77.5685 41.097 76.8954C41.3344 76.2222 41.6598 75.5466 42.0709 74.8735C42.4819 74.2003 42.9762 73.554 43.5512 72.937C44.1262 72.3199 44.7428 71.7906 45.401 71.3443C46.0592 70.9004 46.7443 70.5663 47.4564 70.3444C48.1684 70.1224 48.8731 70.0687 49.568 70.1834C49.8958 70.2419 50.1528 70.337 50.3363 70.4736C50.5198 70.6102 50.6519 70.7614 50.7327 70.9248C50.8159 71.0907 50.8599 71.2541 50.8697 71.4199C50.8795 71.5858 50.8746 71.7248 50.855 71.8394C50.7645 72.4711 50.4537 73.0906 49.9228 73.7003C49.3918 74.3101 48.7679 74.8369 48.046 75.2808C47.3242 75.7247 46.5828 76.0564 45.8268 76.271C45.0682 76.4856 44.4247 76.5076 43.8938 76.3344C43.5096 77.1515 43.2992 77.8393 43.2625 78.4002C43.2429 78.9026 43.3628 79.2295 43.6197 79.3782C43.8742 79.5295 44.2143 79.5465 44.6327 79.4319C45.0536 79.3173 45.5405 79.088 46.0984 78.7441C46.6562 78.4002 47.2264 77.9905 47.8111 77.5173C48.3421 77.0734 48.8902 76.5417 49.4554 75.9247C50.0206 75.3076 50.5981 74.6979 51.1829 74.0955C51.1829 74.1101 51.2 74.1637 51.2367 74.2564C51.2734 74.3491 51.2905 74.4686 51.2905 74.6125C51.2905 74.7564 51.2538 74.9223 51.1804 75.1076C51.107 75.2954 50.9602 75.4954 50.7425 75.7101C50.1748 76.2978 49.6414 76.8246 49.1398 77.2905C48.6382 77.7563 48.1439 78.1831 47.6594 78.5709C47.175 78.9587 46.6905 79.3051 46.206 79.6148C45.724 79.927 45.2175 80.2099 44.6865 80.4684ZM48.4424 70.9394C48.1146 71.0394 47.7622 71.2443 47.3878 71.5516C47.0135 71.8589 46.6391 72.2321 46.2647 72.6711C45.8904 73.1077 45.5282 73.5808 45.1832 74.0906C44.8358 74.6003 44.525 75.1125 44.251 75.6296C44.7257 75.4857 45.2248 75.2613 45.7436 74.9515C46.2647 74.6442 46.7541 74.3028 47.2092 73.9296C47.6668 73.5564 48.0583 73.1687 48.3886 72.7687C48.7165 72.3662 48.9196 71.9931 48.9905 71.6492C49.0076 71.5638 49.0272 71.4711 49.0443 71.3687C49.0615 71.2687 49.059 71.176 49.0297 71.0882C49.0028 71.0029 48.944 70.9419 48.851 70.9053C48.7605 70.8712 48.6235 70.8834 48.4424 70.9394Z" fill="black"/>
<path d="M59.2403 71.2833C59.1865 71.7711 58.9198 72.2004 58.4451 72.5735C58.7926 72.6443 58.9394 72.7394 58.8831 72.854C58.4622 73.7442 58.0194 74.593 57.5545 75.4027C57.0896 76.2125 56.654 77.0344 56.2527 77.8661C56.0325 78.3246 55.9273 78.6197 55.9371 78.749C55.9469 78.8782 56.0374 78.888 56.2112 78.7807C56.3849 78.6734 56.632 78.4661 56.9501 78.1563C57.2706 77.849 57.6352 77.4783 58.0463 77.049C58.4573 76.6198 58.8953 76.149 59.3627 75.6393C59.8276 75.1296 60.2998 74.6247 60.7745 74.1223C60.7916 74.1515 60.8161 74.2125 60.843 74.3052C60.8699 74.3979 60.8797 74.5125 60.8699 74.6491C60.8601 74.7857 60.8185 74.9466 60.7476 75.132C60.6742 75.3174 60.5372 75.5125 60.3365 75.7125C59.7688 76.3003 59.2721 76.8124 58.8439 77.2515C58.4133 77.688 58.012 78.088 57.6377 78.4441C57.2633 78.8026 56.884 79.1368 56.4999 79.4441C56.1157 79.7538 55.6875 80.0636 55.2128 80.3806C54.9559 80.5538 54.6917 80.6636 54.4176 80.7148C54.1436 80.766 53.9013 80.766 53.6909 80.7148C53.4805 80.6636 53.3117 80.5709 53.1844 80.4343C53.0572 80.2977 53.0009 80.1294 53.0205 79.9294C53.0376 79.7709 53.0743 79.588 53.1306 79.3807C53.1844 79.1734 53.2578 78.9465 53.3508 78.7026C53.0572 78.9612 52.7513 79.2124 52.4332 79.4563C52.1127 79.7002 51.7971 79.9148 51.4888 80.1026C51.178 80.2904 50.8771 80.4392 50.5834 80.5538C50.2898 80.6684 50.0353 80.727 49.8151 80.727C49.3771 80.727 49.0468 80.6221 48.8291 80.4148C48.6088 80.2075 48.5085 79.9319 48.5281 79.5855C48.5452 79.0416 48.6798 78.427 48.9245 77.7466C49.1716 77.0661 49.5044 76.371 49.9252 75.6588C50.3461 74.9491 50.8379 74.2564 51.4056 73.5833C51.9708 72.9101 52.5849 72.3101 53.2431 71.7882C53.9013 71.2638 54.5865 70.8443 55.2985 70.5297C56.0105 70.2151 56.725 70.0638 57.437 70.0785C57.9313 70.0931 58.3644 70.1956 58.7387 70.3907C59.1082 70.5833 59.277 70.8833 59.2403 71.2833ZM55.3205 73.0052C55.8686 72.8906 56.331 72.7004 56.7054 72.4345C57.0798 72.1687 57.3489 71.8565 57.5129 71.498C57.5863 71.3394 57.5765 71.1785 57.486 71.015C57.3954 70.8492 57.1654 70.8248 56.8008 70.9394C56.473 71.0394 56.1206 71.2687 55.7463 71.6272C55.3719 71.9857 54.9877 72.415 54.5938 72.9174C54.1999 73.4199 53.8181 73.9613 53.4438 74.5418C53.0694 75.1222 52.7342 75.6881 52.443 76.2417C52.1494 76.7929 51.9096 77.3002 51.7163 77.7588C51.5255 78.2173 51.4105 78.5758 51.3738 78.8343C51.3371 79.0343 51.4105 79.1148 51.594 79.0709C51.7775 79.027 52.0002 78.9197 52.2644 78.749C52.5287 78.5758 52.8174 78.3587 53.1281 78.0929C53.4389 77.827 53.7129 77.5734 53.9503 77.3295C54.261 76.6563 54.6134 75.9734 55.0049 75.2857C55.3964 74.5979 55.7585 73.9589 56.0864 73.3711C55.6875 73.3418 55.4306 73.2199 55.3205 73.0052Z" fill="black"/>
<path d="M68.23 71.198C68.23 71.3419 68.1248 71.6809 67.9143 72.2199C67.7039 72.7589 67.425 73.415 67.0775 74.1881L68.8857 71.9077C68.9224 71.8516 69.0179 71.7248 69.1745 71.5321C69.3286 71.3394 69.517 71.1419 69.7372 70.9394C69.9574 70.7394 70.1997 70.5565 70.4639 70.3907C70.7282 70.2248 70.9974 70.1517 71.2714 70.1639C71.5626 70.1785 71.8024 70.2712 71.9834 70.4443C72.1669 70.6175 72.2379 70.8687 72.2036 71.198C72.1841 71.4711 72.1082 71.7858 71.9712 72.1443C71.8342 72.5028 71.6335 72.9394 71.3693 73.4564C71.105 73.9735 70.7747 74.5906 70.3832 75.3052C69.9893 76.0222 69.5292 76.8759 68.9983 77.8661C68.7781 78.3246 68.6729 78.6197 68.6826 78.749C68.6924 78.8782 68.7879 78.888 68.9714 78.7807C69.1549 78.6734 69.4143 78.4661 69.7519 78.1563C70.0896 77.849 70.4639 77.4783 70.875 77.049C71.2861 76.6198 71.729 76.1491 72.2036 75.6393C72.6783 75.1296 73.153 74.6247 73.6301 74.1223C73.6473 74.1516 73.6717 74.2125 73.6987 74.3052C73.7256 74.3979 73.7354 74.5125 73.7256 74.6491C73.7158 74.7857 73.6742 74.9466 73.6032 75.132C73.5298 75.3174 73.3928 75.5125 73.1922 75.7125C72.6245 76.3003 72.1278 76.8124 71.6996 77.2515C71.269 77.688 70.8628 78.088 70.4811 78.4441C70.0969 78.8026 69.7177 79.1368 69.3433 79.4441C68.9689 79.7538 68.5432 80.0636 68.0685 80.3806C67.7944 80.5538 67.5106 80.6562 67.2194 80.6928C66.9258 80.7294 66.6713 80.6977 66.4511 80.5953C66.2309 80.4953 66.067 80.3416 65.9569 80.1319C65.8468 79.9246 65.837 79.6685 65.93 79.3685C66.204 78.5661 66.5637 77.7271 67.0115 76.8515C67.4592 75.9759 68.0024 74.9954 68.6435 73.9052H68.6166C68.7438 73.6467 68.7903 73.5174 68.7536 73.5174C68.7169 73.5174 68.6484 73.576 68.5481 73.6906C68.4477 73.8052 68.3279 73.9516 68.1908 74.132C68.0538 74.3125 67.9388 74.4589 67.8483 74.5735C67.7015 74.7735 67.5228 75.0003 67.3149 75.2515C67.1044 75.5027 66.8891 75.7637 66.6714 76.0369C66.4511 76.31 66.2334 76.5783 66.0132 76.8442C65.7929 77.11 65.5923 77.3563 65.4112 77.5856L65.0002 78.3612C64.7261 78.8929 64.4839 79.3148 64.2734 79.6294C64.063 79.9441 63.8624 80.1806 63.6715 80.3392C63.4807 80.4977 63.2874 80.5977 63.0965 80.6392C62.9057 80.6806 62.6904 80.7026 62.453 80.7026C62.1423 80.688 61.922 80.5733 61.7948 80.3587C61.6676 80.1441 61.6749 79.8294 61.8217 79.4124C62.0762 78.5953 62.4555 77.7466 62.9595 76.8637C63.4611 75.9808 64.0239 74.9954 64.6454 73.9052C64.7726 73.6467 64.8093 73.5223 64.7555 73.5296C64.7016 73.5369 64.6136 73.6003 64.4961 73.7223C64.3762 73.8442 64.2392 73.9979 64.085 74.1857C63.9284 74.3735 63.8159 74.5223 63.7425 74.6369C63.559 74.8662 63.3485 75.1296 63.1112 75.4222C62.8739 75.7174 62.6267 76.0149 62.3723 76.3149C62.1153 76.6149 61.8658 76.91 61.6186 77.1978C61.3715 77.4856 61.166 77.7368 61.002 77.9514L60.8112 78.3612C60.5371 78.8929 60.2949 79.3148 60.0845 79.6294C59.874 79.9441 59.6685 80.1806 59.4679 80.3392C59.2672 80.4977 59.0715 80.5977 58.8782 80.6392C58.6849 80.6806 58.472 80.7026 58.2347 80.7026C57.9239 80.688 57.7135 80.5709 57.6034 80.3465C57.4933 80.1246 57.53 79.8124 57.7135 79.4099C57.9704 78.8368 58.2714 78.1953 58.6188 77.4856C58.9663 76.7759 59.3406 76.0442 59.7419 75.2905C60.1432 74.5369 60.5689 73.7784 61.0167 73.0101C61.4645 72.2443 61.9074 71.5224 62.3453 70.8492C62.5289 70.5614 62.7613 70.3687 63.0451 70.2687C63.329 70.1687 63.603 70.1224 63.8673 70.1297C64.1315 70.137 64.3517 70.1907 64.5255 70.2907C64.6992 70.3907 64.7579 70.4907 64.7041 70.5907L62.5656 74.8271L64.8949 71.9028C64.9488 71.8467 65.0491 71.7199 65.1959 71.5272C65.3427 71.3346 65.5238 71.137 65.744 70.9346C65.9642 70.7346 66.2065 70.5517 66.4707 70.3858C66.735 70.22 67.0041 70.1468 67.2782 70.159C67.5693 70.1736 67.8042 70.2663 67.978 70.4395C68.1443 70.6175 68.23 70.8687 68.23 71.198Z" fill="black"/>
<path d="M77.7678 79.3709C77.988 78.6978 78.2645 78.0027 78.6046 77.2832C78.9422 76.5661 79.3068 75.8491 79.7008 75.132C80.0923 74.415 80.5131 73.7004 80.9609 72.9906C81.4087 72.2809 81.8515 71.5882 82.2895 70.9151C82.473 70.6419 82.7104 70.4565 83.0015 70.3565C83.2927 70.2566 83.5668 70.2102 83.8237 70.2175C84.0781 70.2248 84.2935 70.2761 84.4672 70.3687C84.6409 70.4614 84.6996 70.559 84.6458 70.659L80.8092 77.8661C80.589 78.3246 80.4837 78.6197 80.4935 78.749C80.5033 78.8783 80.5987 78.8856 80.7823 78.7709C80.9658 78.6563 81.2251 78.4441 81.5628 78.1368C81.9005 77.8295 82.2748 77.4588 82.6859 77.0295C83.097 76.6003 83.5398 76.1296 84.0145 75.6198C84.4892 75.1101 84.9639 74.6052 85.441 74.1028C85.441 74.1174 85.4582 74.1711 85.4949 74.2638C85.5316 74.3564 85.5487 74.4759 85.5487 74.6198C85.5487 74.7637 85.512 74.9296 85.4386 75.115C85.3652 75.3028 85.2184 75.5027 85.0006 75.7174C84.4329 76.3052 83.9362 76.8173 83.508 77.2564C83.0774 77.6929 82.6761 78.0929 82.3017 78.449C81.9274 78.8075 81.5481 79.1417 81.164 79.449C80.7798 79.7587 80.3516 80.0685 79.8769 80.3855C79.62 80.5587 79.346 80.6611 79.0548 80.6977C78.7612 80.7343 78.5018 80.7026 78.2743 80.6002C78.0467 80.5002 77.8779 80.3465 77.7678 80.1368C77.6601 79.927 77.6601 79.6734 77.7678 79.3709ZM84.428 67.842C84.7021 67.5127 85.0398 67.2835 85.4435 67.1542C85.8448 67.0249 86.1922 67.0396 86.4858 67.1981C86.777 67.3566 86.9238 67.603 86.9238 67.9395C86.9238 68.2761 86.7868 68.6103 86.5127 68.9395C86.2387 69.2688 85.901 69.498 85.4973 69.6273C85.096 69.7566 84.7486 69.7419 84.455 69.5834C84.1613 69.4249 84.0219 69.1785 84.0292 68.842C84.0414 68.5054 84.1736 68.1712 84.428 67.842Z" fill="black"/>
<path d="M90.8143 68.0347H92.3215C92.5417 68.02 92.691 68.0493 92.7742 68.12C92.8574 68.1907 92.8794 68.2737 92.8427 68.3663C92.806 68.459 92.7106 68.5493 92.554 68.6346C92.3974 68.72 92.2016 68.7712 91.9643 68.7858H90.4008L85.7151 77.8636C85.4949 78.3222 85.3896 78.6173 85.3994 78.7465C85.4092 78.8758 85.5046 78.8856 85.6882 78.7782C85.8717 78.6709 86.131 78.4636 86.4687 78.1539C86.8064 77.8466 87.1807 77.4758 87.5918 77.0466C88.0029 76.6173 88.4457 76.1466 88.9204 75.6369C89.3951 75.1271 89.8698 74.6223 90.3469 74.1198C90.364 74.1491 90.3885 74.2101 90.4154 74.3028C90.4423 74.3954 90.4521 74.5101 90.4424 74.6467C90.4326 74.7832 90.391 74.9442 90.32 75.1296C90.2466 75.3149 90.1096 75.51 89.9089 75.71C89.3413 76.2978 88.8446 76.81 88.4164 77.249C87.9857 77.6856 87.5796 78.0856 87.1978 78.4417C86.8137 78.8002 86.4344 79.1343 86.0601 79.4416C85.6857 79.7514 85.26 80.0611 84.7853 80.3782C84.5284 80.5514 84.2543 80.6538 83.9631 80.6904C83.6695 80.727 83.4101 80.6953 83.1826 80.5928C82.955 80.4928 82.7862 80.3392 82.6761 80.1294C82.566 79.9221 82.5586 79.666 82.6492 79.366C82.8498 78.8075 83.0872 78.2295 83.3612 77.6344C83.6353 77.0393 83.9558 76.4051 84.3204 75.7296C84.9419 74.5393 85.5707 73.3394 86.2118 72.1272C86.8504 70.9151 87.4548 69.8078 88.02 68.8029H87.7998C87.5991 68.8029 87.4523 68.7639 87.3618 68.6834C87.2688 68.6054 87.2419 68.5176 87.2786 68.4249C87.3153 68.3322 87.4058 68.2468 87.5526 68.1663C87.6995 68.0883 87.9001 68.0493 88.1546 68.0493H88.4286C88.6292 67.72 88.8177 67.4103 88.9914 67.1249C89.1651 66.8371 89.3241 66.5737 89.471 66.3298C89.6545 66.0567 89.8918 65.8713 90.183 65.7713C90.4742 65.6713 90.7482 65.625 91.0051 65.6323C91.2596 65.6396 91.4749 65.6908 91.6486 65.7835C91.8224 65.8762 91.8811 65.9737 91.8273 66.0737L90.8143 68.0347Z" fill="black"/>
<path d="M95.3385 79.2416C95.5587 79.2416 95.7764 79.2416 95.9967 79.2636C96.8726 79.327 97.4207 79.9733 97.1198 80.6392C96.8995 81.1123 96.6549 81.5855 96.1337 81.9294C95.8866 82.122 95.5587 82.2952 95.2284 82.4025C94.9005 82.4879 94.5432 82.3586 94.2961 82.122C94.323 82.0781 94.3499 82.0367 94.4062 82.0147C95.1745 81.4977 95.3654 80.8099 95.2822 80.0782C95.2553 79.927 95.1452 79.8197 95.062 79.6904C94.8442 79.4148 94.9274 79.2855 95.3385 79.2416Z" fill="black"/>
<path d="M117.181 77.4783C116.56 78.1246 115.902 78.6978 115.207 79.2002C114.512 79.7026 113.81 80.1368 113.095 80.5026C112.381 80.8684 111.678 81.1538 110.984 81.3635C110.289 81.5709 109.64 81.705 109.038 81.7611C108.29 81.8318 107.541 81.7562 106.79 81.5343C106.041 81.3123 105.405 80.9148 104.884 80.3392C104.362 79.766 104.01 78.9978 103.829 78.0368C103.645 77.0759 103.738 75.893 104.103 74.4881C104.431 73.2394 104.994 71.9711 105.789 70.6809C106.584 69.3907 107.558 68.1932 108.708 67.0883C109.858 65.9835 111.143 65.0372 112.559 64.2494C113.976 63.4616 115.469 62.9519 117.039 62.7226C118.282 62.5373 119.254 62.5543 119.959 62.7763C120.661 62.9982 121.14 63.3397 121.397 63.7982C121.652 64.2567 121.72 64.803 121.603 65.4323C121.483 66.064 121.224 66.6932 120.822 67.3249C120.421 67.9566 119.907 68.5468 119.288 69.1005C118.667 69.6517 117.986 70.0858 117.245 70.4029C116.506 70.7175 115.733 70.8736 114.928 70.8663C114.123 70.859 113.347 70.6126 112.598 70.1248C113.22 70.2834 113.873 70.2102 114.558 69.9102C115.243 69.6102 115.882 69.1907 116.477 68.6517C117.071 68.1127 117.583 67.52 118.011 66.8664C118.439 66.2152 118.706 65.6274 118.806 65.103C118.906 64.5787 118.821 64.1787 118.547 63.8982C118.273 63.6177 117.725 63.5787 116.902 63.7787C115.806 64.0372 114.759 64.5323 113.763 65.264C112.767 65.9957 111.857 66.8518 111.035 67.8347C110.213 68.8176 109.501 69.8785 108.896 71.0175C108.292 72.1565 107.837 73.2662 107.526 74.3418C107.198 75.5027 107.015 76.4856 106.978 77.2881C106.941 78.0905 107.015 78.7441 107.198 79.2465C107.382 79.749 107.663 80.1099 108.047 80.3319C108.431 80.5538 108.869 80.666 109.364 80.666C109.785 80.666 110.264 80.5831 110.802 80.4197C111.341 80.2538 111.921 80.0148 112.542 79.7002C113.164 79.3856 113.812 78.9978 114.487 78.5392C115.163 78.0807 115.84 77.5563 116.516 76.9685C116.973 76.5393 117.448 76.0759 117.94 75.5808C118.434 75.0857 118.909 74.5881 119.366 74.0857C119.366 74.1003 119.381 74.1491 119.408 74.2369C119.435 74.3223 119.445 74.4369 119.435 74.5808C119.425 74.7247 119.384 74.893 119.313 75.0857C119.239 75.2783 119.102 75.4832 118.901 75.6979C118.324 76.3539 117.749 76.949 117.181 77.4783Z" fill="black"/>
<path d="M121.348 74.6174L123.651 71.9492C123.705 71.8931 123.825 71.7663 124.008 71.5736C124.192 71.3809 124.414 71.176 124.678 70.9614C124.943 70.7468 125.222 70.5565 125.515 70.3907C125.806 70.2248 126.09 70.1517 126.364 70.1639C126.729 70.1931 126.959 70.2907 127.049 70.4541C127.14 70.6199 127.177 70.8029 127.16 71.0029C127.14 71.2468 127.027 71.5833 126.817 72.015C126.607 72.4443 126.374 72.9004 126.117 73.3808C125.86 73.8613 125.601 74.3418 125.337 74.8223C125.072 75.3027 124.874 75.7076 124.747 76.0369C124.419 76.71 124.314 77.1124 124.431 77.2417C124.549 77.371 124.806 77.31 125.2 77.0588C125.591 76.8076 126.081 76.4125 126.665 75.8759C127.25 75.3393 127.845 74.7467 128.447 74.1003C128.447 74.115 128.464 74.1686 128.5 74.2613C128.537 74.354 128.552 74.4735 128.542 74.6174C128.532 74.7613 128.491 74.9271 128.42 75.1125C128.346 75.3003 128.209 75.5003 128.009 75.7149C127.204 76.5466 126.408 77.2319 125.623 77.7685C124.838 78.3051 124.015 78.5758 123.157 78.5758C122.736 78.5758 122.393 78.4661 122.129 78.2417C121.865 78.0197 121.777 77.649 121.87 77.1344C121.887 76.9905 121.96 76.7881 122.09 76.5222C122.217 76.2564 122.364 75.971 122.528 75.6613C122.692 75.354 122.856 75.0442 123.022 74.7369C123.186 74.4296 123.333 74.1516 123.46 73.9077C123.661 73.5491 123.729 73.3589 123.665 73.3369C123.602 73.315 123.482 73.376 123.308 73.5199C123.135 73.6638 122.944 73.8467 122.733 74.0686C122.523 74.2906 122.381 74.4589 122.307 74.5735C122.161 74.7735 121.982 75.0003 121.774 75.2515C121.564 75.5027 121.348 75.7613 121.131 76.0271C120.91 76.293 120.693 76.5588 120.472 76.8222C120.252 77.0881 120.052 77.3344 119.87 77.5636L119.486 78.3587C119.212 78.8904 118.97 79.3124 118.76 79.627C118.549 79.9416 118.344 80.1782 118.143 80.3367C117.942 80.4953 117.747 80.5953 117.553 80.6367C117.36 80.6782 117.147 80.7001 116.91 80.7001C116.599 80.6855 116.389 80.5684 116.278 80.3441C116.168 80.1221 116.205 79.8099 116.389 79.4075C116.646 78.8343 116.946 78.1929 117.294 77.4832C117.641 76.7734 118.016 76.0417 118.417 75.2881C118.818 74.5345 119.244 73.776 119.692 73.0077C120.14 72.2418 120.582 71.5199 121.02 70.8468C121.204 70.559 121.436 70.3663 121.72 70.2663C122.004 70.1663 122.278 70.12 122.542 70.1273C122.807 70.1346 123.027 70.1882 123.201 70.2882C123.374 70.3882 123.433 70.4882 123.379 70.5882L121.348 74.6174Z" fill="black"/>
<path d="M125.542 79.3709C125.762 78.6978 126.039 78.0027 126.379 77.2832C126.717 76.5661 127.081 75.8491 127.475 75.132C127.867 74.415 128.288 73.7004 128.735 72.9906C129.183 72.2809 129.626 71.5882 130.064 70.9151C130.247 70.6419 130.485 70.4565 130.776 70.3565C131.067 70.2566 131.341 70.2102 131.598 70.2175C131.853 70.2248 132.068 70.2761 132.242 70.3687C132.415 70.4614 132.474 70.559 132.42 70.659L128.584 77.8661C128.363 78.3246 128.258 78.6197 128.268 78.749C128.278 78.8783 128.373 78.8856 128.557 78.7709C128.74 78.6563 129 78.4441 129.337 78.1368C129.675 77.8295 130.049 77.4588 130.46 77.0295C130.871 76.6003 131.314 76.1296 131.789 75.6198C132.264 75.1101 132.738 74.6052 133.215 74.1028C133.215 74.1174 133.233 74.1711 133.269 74.2638C133.306 74.3564 133.323 74.4759 133.323 74.6198C133.323 74.7637 133.286 74.9296 133.213 75.115C133.14 75.3028 132.993 75.5027 132.775 75.7174C132.207 76.3052 131.711 76.8173 131.282 77.2564C130.852 77.6929 130.451 78.0929 130.076 78.449C129.702 78.8075 129.323 79.1417 128.938 79.449C128.554 79.7587 128.126 80.0685 127.651 80.3855C127.394 80.5587 127.12 80.6611 126.829 80.6977C126.536 80.7343 126.276 80.7026 126.049 80.6002C125.821 80.5002 125.652 80.3465 125.542 80.1368C125.432 79.927 125.432 79.6734 125.542 79.3709ZM132.202 67.842C132.477 67.5127 132.814 67.2835 133.218 67.1542C133.619 67.0249 133.967 67.0396 134.26 67.1981C134.551 67.3566 134.698 67.603 134.698 67.9395C134.698 68.2761 134.561 68.6103 134.287 68.9395C134.013 69.2688 133.675 69.498 133.272 69.6273C132.87 69.7566 132.523 69.7419 132.229 69.5834C131.936 69.4249 131.796 69.1785 131.804 68.842C131.813 68.5054 131.946 68.1712 132.202 67.842Z" fill="black"/>
<path d="M132.777 79.1343C132.758 79.4075 132.831 79.5977 132.998 79.705C133.162 79.8124 133.326 79.8733 133.492 79.888C133.82 79.9172 134.131 79.8319 134.424 79.6294C134.715 79.4294 134.955 79.227 135.136 79.027C135.427 78.7124 135.542 78.41 135.479 78.1246C135.415 77.8368 135.268 77.5515 135.041 77.2637C134.813 76.9759 134.534 76.6832 134.204 76.3808C133.876 76.0808 133.582 75.7686 133.328 75.4442C133.071 75.1222 132.89 74.7808 132.78 74.4223C132.67 74.0637 132.726 73.676 132.944 73.2613C133.419 72.315 134.104 71.5467 134.999 70.959C135.895 70.3712 136.918 70.0687 138.07 70.0565C140.045 70.0419 140.984 70.7175 140.894 72.0784C140.857 72.6101 140.642 73.093 140.25 73.5296C139.856 73.9662 139.408 74.3003 138.907 74.5296C138.405 74.7588 137.911 74.8515 137.426 74.8101C136.942 74.7662 136.599 74.5296 136.399 74.1003C136.673 74.0442 136.937 73.932 137.194 73.7662C137.448 73.6003 137.683 73.4101 137.894 73.1955C138.104 72.9808 138.285 72.7443 138.442 72.4857C138.596 72.2272 138.721 71.976 138.811 71.7321C138.975 71.2736 138.963 71.0199 138.77 70.9687C138.579 70.9175 138.312 70.9785 137.975 71.1516C137.637 71.3248 137.275 71.5565 136.893 71.8516C136.509 72.1467 136.208 72.4077 135.988 72.637C135.677 72.9662 135.518 73.2638 135.508 73.5296C135.498 73.7955 135.586 74.0418 135.768 74.2711C135.951 74.5003 136.183 74.7296 136.467 74.9588C136.751 75.1881 137.02 75.4369 137.275 75.7003C137.529 75.9661 137.732 76.2637 137.877 76.5929C138.023 76.9222 138.05 77.3027 137.96 77.7319C137.867 78.149 137.696 78.5392 137.439 78.9051C137.182 79.2709 136.864 79.5855 136.48 79.8514C136.095 80.1172 135.653 80.3319 135.151 80.4977C134.649 80.6636 134.104 80.744 133.519 80.744C132.971 80.744 132.491 80.6758 132.08 80.5392C131.669 80.4026 131.344 80.2099 131.106 79.9587C130.869 79.7075 130.727 79.4172 130.681 79.088C130.634 78.7587 130.712 78.4075 130.913 78.0344C131.097 77.6905 131.371 77.4002 131.735 77.1637C132.1 76.9271 132.479 76.7759 132.873 76.7124C133.264 76.649 133.641 76.6881 133.996 76.8295C134.353 76.9734 134.622 77.2539 134.803 77.6685C134.255 77.7832 133.776 77.9661 133.365 78.2173C132.956 78.4709 132.758 78.7758 132.777 79.1343Z" fill="black"/>
<path d="M146.592 68.0347H148.1C148.32 68.02 148.469 68.0493 148.552 68.12C148.635 68.1907 148.657 68.2737 148.621 68.3663C148.584 68.459 148.489 68.5493 148.332 68.6346C148.175 68.72 147.98 68.7712 147.742 68.7858H146.179L141.491 77.8636C141.27 78.3222 141.165 78.6173 141.175 78.7465C141.185 78.8758 141.28 78.8856 141.464 78.7782C141.647 78.6709 141.907 78.4636 142.244 78.1539C142.582 77.8466 142.956 77.4758 143.367 77.0466C143.778 76.6173 144.221 76.1466 144.696 75.6369C145.171 75.1271 145.645 74.6223 146.123 74.1198C146.14 74.1491 146.164 74.2101 146.191 74.3028C146.218 74.3954 146.228 74.5101 146.218 74.6467C146.208 74.7832 146.167 74.9442 146.096 75.1296C146.022 75.3149 145.885 75.51 145.685 75.71C145.117 76.2978 144.62 76.81 144.19 77.249C143.759 77.6856 143.353 78.0856 142.971 78.4417C142.587 78.8002 142.208 79.1343 141.833 79.4416C141.459 79.7514 141.033 80.0611 140.558 80.3782C140.302 80.5514 140.027 80.6538 139.736 80.6904C139.443 80.727 139.183 80.6953 138.956 80.5928C138.728 80.4928 138.559 80.3392 138.449 80.1294C138.339 79.9221 138.329 79.666 138.422 79.366C138.623 78.8075 138.86 78.2295 139.134 77.6344C139.408 77.0393 139.729 76.4051 140.094 75.7296C140.715 74.5393 141.344 73.3394 141.985 72.1272C142.624 70.9151 143.228 69.8078 143.793 68.8029H143.573C143.372 68.8029 143.225 68.7639 143.135 68.6834C143.042 68.6054 143.015 68.5176 143.052 68.4249C143.088 68.3322 143.179 68.2468 143.326 68.1663C143.473 68.0883 143.673 68.0493 143.928 68.0493H144.202C144.402 67.72 144.591 67.4103 144.765 67.1249C144.938 66.8371 145.097 66.5737 145.244 66.3298C145.428 66.0567 145.665 65.8713 145.956 65.7713C146.247 65.6713 146.521 65.625 146.778 65.6323C147.033 65.6396 147.248 65.6908 147.422 65.7835C147.596 65.8762 147.654 65.9737 147.6 66.0737L146.592 68.0347Z" fill="black"/>
<path d="M154.155 71.2833C154.102 71.7711 153.835 72.2004 153.36 72.5735C153.708 72.6443 153.855 72.7394 153.798 72.854C153.377 73.7442 152.935 74.593 152.47 75.4027C152.005 76.2125 151.569 77.0344 151.168 77.8661C150.948 78.3246 150.842 78.6197 150.852 78.749C150.862 78.8782 150.953 78.888 151.126 78.7807C151.3 78.6734 151.547 78.4661 151.865 78.1563C152.186 77.849 152.55 77.4783 152.961 77.049C153.372 76.6198 153.81 76.149 154.278 75.6393C154.743 75.1296 155.215 74.6247 155.69 74.1223C155.707 74.1515 155.731 74.2125 155.758 74.3052C155.785 74.3979 155.795 74.5125 155.785 74.6491C155.775 74.7857 155.734 74.9466 155.663 75.132C155.589 75.3174 155.452 75.5125 155.252 75.7125C154.684 76.3003 154.187 76.8124 153.757 77.2515C153.326 77.688 152.925 78.088 152.55 78.4441C152.176 78.8026 151.797 79.1368 151.413 79.4441C151.028 79.7538 150.6 80.0636 150.123 80.3806C149.866 80.5538 149.602 80.6636 149.328 80.7148C149.054 80.766 148.812 80.766 148.601 80.7148C148.391 80.6636 148.222 80.5709 148.095 80.4343C147.967 80.2977 147.911 80.1294 147.931 79.9294C147.948 79.7709 147.985 79.588 148.041 79.3807C148.095 79.1734 148.168 78.9465 148.261 78.7026C147.967 78.9612 147.662 79.2124 147.343 79.4563C147.023 79.7002 146.707 79.9148 146.397 80.1026C146.086 80.2904 145.785 80.4392 145.491 80.5538C145.198 80.6684 144.943 80.727 144.723 80.727C144.285 80.727 143.955 80.6221 143.737 80.4148C143.517 80.2075 143.416 79.9319 143.436 79.5855C143.453 79.0416 143.588 78.427 143.832 77.7466C144.079 77.0661 144.412 76.371 144.833 75.6588C145.254 74.9491 145.746 74.2564 146.313 73.5833C146.879 72.9101 147.493 72.3101 148.151 71.7882C148.809 71.2638 149.494 70.8443 150.206 70.5297C150.918 70.2151 151.63 70.0638 152.345 70.0785C152.839 70.0931 153.272 70.1956 153.647 70.3907C154.023 70.5833 154.192 70.8833 154.155 71.2833ZM150.236 73.0052C150.784 72.8906 151.246 72.7004 151.621 72.4345C151.995 72.1687 152.264 71.8565 152.428 71.498C152.501 71.3394 152.492 71.1785 152.401 71.015C152.311 70.8492 152.081 70.8248 151.716 70.9394C151.388 71.0394 151.036 71.2687 150.661 71.6272C150.287 71.9857 149.903 72.415 149.511 72.9174C149.117 73.4199 148.733 73.9613 148.359 74.5418C147.985 75.1222 147.649 75.6881 147.358 76.2417C147.065 76.7929 146.825 77.3002 146.631 77.7588C146.441 78.2173 146.326 78.5758 146.289 78.8343C146.252 79.0343 146.326 79.1148 146.509 79.0709C146.693 79.027 146.915 78.9197 147.18 78.749C147.444 78.5758 147.733 78.3587 148.043 78.0929C148.354 77.827 148.628 77.5734 148.865 77.3295C149.176 76.6563 149.529 75.9734 149.92 75.2857C150.314 74.5979 150.674 73.9589 151.002 73.3711C150.603 73.3418 150.346 73.2199 150.236 73.0052Z" fill="black"/>
<path d="M155.964 77.8661C155.743 78.3246 155.638 78.6197 155.648 78.749C155.658 78.8783 155.753 78.888 155.937 78.7807C156.12 78.6734 156.38 78.4661 156.717 78.1563C157.055 77.849 157.429 77.4783 157.84 77.049C158.251 76.6198 158.694 76.1491 159.169 75.6393C159.644 75.1296 160.118 74.6247 160.596 74.1223C160.613 74.1516 160.637 74.2125 160.664 74.3052C160.691 74.3979 160.701 74.5125 160.691 74.6491C160.681 74.7857 160.64 74.9467 160.569 75.132C160.495 75.3174 160.358 75.5125 160.158 75.7125C159.59 76.3003 159.093 76.8125 158.663 77.2515C158.232 77.688 157.826 78.088 157.444 78.4441C157.06 78.8026 156.681 79.1368 156.306 79.4441C155.932 79.7538 155.506 80.0636 155.031 80.3806C154.775 80.5538 154.5 80.6562 154.209 80.6928C153.916 80.7294 153.656 80.6977 153.429 80.5953C153.201 80.4953 153.032 80.3416 152.922 80.1319C152.812 79.9246 152.802 79.6685 152.895 79.3685C153.096 78.81 153.333 78.2319 153.607 77.6368C153.881 77.0417 154.202 76.4076 154.567 75.732C155.024 74.8564 155.494 73.9613 155.978 73.0443C156.463 72.1272 156.928 71.2516 157.376 70.42C157.823 69.5883 158.249 68.8176 158.65 68.1078C159.052 67.3981 159.409 66.8054 159.72 66.3323C159.903 66.0591 160.14 65.8737 160.432 65.7737C160.723 65.6737 160.997 65.6274 161.254 65.6347C161.508 65.642 161.724 65.6933 161.897 65.7859C162.071 65.8786 162.13 65.9762 162.076 66.0762L155.964 77.8661Z" fill="black"/>
<path d="M160.899 77.8661C160.679 78.3246 160.574 78.6197 160.583 78.749C160.593 78.8783 160.689 78.888 160.872 78.7807C161.056 78.6734 161.315 78.4661 161.653 78.1563C161.99 77.849 162.365 77.4783 162.776 77.049C163.187 76.6198 163.63 76.1491 164.104 75.6393C164.579 75.1296 165.054 74.6247 165.531 74.1223C165.548 74.1516 165.572 74.2125 165.599 74.3052C165.626 74.3979 165.636 74.5125 165.626 74.6491C165.616 74.7857 165.575 74.9467 165.504 75.132C165.43 75.3174 165.293 75.5125 165.093 75.7125C164.525 76.3003 164.028 76.8125 163.598 77.2515C163.167 77.688 162.761 78.088 162.379 78.4441C161.995 78.8026 161.616 79.1368 161.241 79.4441C160.867 79.7538 160.441 80.0636 159.967 80.3806C159.71 80.5538 159.436 80.6562 159.145 80.6928C158.851 80.7294 158.592 80.6977 158.364 80.5953C158.136 80.4953 157.968 80.3416 157.858 80.1319C157.747 79.9246 157.738 79.6685 157.831 79.3685C158.031 78.81 158.269 78.2319 158.543 77.6368C158.817 77.0417 159.137 76.4076 159.502 75.732C159.959 74.8564 160.429 73.9613 160.914 73.0443C161.398 72.1272 161.863 71.2516 162.311 70.42C162.759 69.5883 163.184 68.8176 163.586 68.1078C163.987 67.3981 164.344 66.8054 164.655 66.3323C164.838 66.0591 165.076 65.8737 165.367 65.7737C165.658 65.6737 165.932 65.6274 166.189 65.6347C166.443 65.642 166.659 65.6933 166.833 65.7859C167.006 65.8786 167.065 65.9762 167.011 66.0762L160.899 77.8661Z" fill="black"/>
<path d="M162.653 79.3709C162.874 78.6978 163.15 78.0027 163.49 77.2832C163.828 76.5661 164.192 75.8491 164.586 75.132C164.98 74.415 165.399 73.7004 165.846 72.9906C166.294 72.2809 166.737 71.5882 167.175 70.9151C167.359 70.6419 167.596 70.4565 167.887 70.3565C168.178 70.2566 168.452 70.2102 168.709 70.2175C168.964 70.2248 169.179 70.2761 169.353 70.3687C169.527 70.4614 169.585 70.559 169.531 70.659L165.695 77.8661C165.475 78.3246 165.369 78.6197 165.379 78.749C165.389 78.8783 165.484 78.8856 165.668 78.7709C165.851 78.6563 166.111 78.4441 166.448 78.1368C166.786 77.8295 167.16 77.4588 167.571 77.0295C167.983 76.6003 168.425 76.1296 168.9 75.6198C169.375 75.1101 169.849 74.6052 170.324 74.1028C170.324 74.1174 170.341 74.1711 170.378 74.2638C170.415 74.3564 170.432 74.4759 170.432 74.6198C170.432 74.7637 170.395 74.9296 170.322 75.115C170.248 75.3028 170.102 75.5027 169.884 75.7174C169.316 76.3052 168.819 76.8173 168.389 77.2564C167.961 77.6929 167.557 78.0929 167.182 78.449C166.808 78.8075 166.429 79.1417 166.045 79.449C165.661 79.7587 165.232 80.0685 164.758 80.3855C164.501 80.5587 164.227 80.6611 163.935 80.6977C163.642 80.7343 163.383 80.7026 163.155 80.6002C162.927 80.5002 162.759 80.3465 162.648 80.1368C162.543 79.927 162.543 79.6734 162.653 79.3709ZM169.314 67.842C169.588 67.5127 169.925 67.2835 170.327 67.1542C170.728 67.0249 171.075 67.0396 171.369 67.1981C171.66 67.3566 171.807 67.603 171.807 67.9395C171.807 68.2761 171.67 68.6103 171.396 68.9395C171.122 69.2688 170.784 69.498 170.383 69.6273C169.982 69.7566 169.634 69.7419 169.341 69.5834C169.047 69.4249 168.905 69.1785 168.915 68.842C168.925 68.5054 169.057 68.1712 169.314 67.842Z" fill="black"/>
<path d="M167.914 78.7685C168.098 78.4539 168.33 78.1831 168.614 77.9612C168.898 77.7393 169.284 77.5271 169.778 77.3271C170.491 77.0393 171.144 76.6637 171.738 76.1978C172.333 75.732 172.862 75.254 173.329 74.7662C173.794 74.2784 174.173 73.8174 174.467 73.3784C174.758 72.9418 174.961 72.6004 175.069 72.3565C175.179 72.0687 175.223 71.8516 175.206 71.7004C175.186 71.5492 175.022 71.576 174.711 71.776C173.98 72.2345 173.258 72.5784 172.546 72.8077L169.311 76.3149C169.311 76.3003 169.292 76.2515 169.257 76.1637C169.221 76.0783 169.206 75.9637 169.216 75.8198C169.226 75.6759 169.265 75.5076 169.338 75.3149C169.411 75.1223 169.548 74.9174 169.749 74.7028L171.283 73.0467C170.955 73.0467 170.725 73.0004 170.598 72.9077C170.471 72.815 170.407 72.654 170.407 72.4248C170.407 72.1662 170.517 71.8467 170.735 71.4687C170.955 71.0882 171.22 70.7273 171.53 70.3834C171.841 70.0395 172.164 69.7419 172.504 69.4907C172.842 69.2395 173.131 69.1151 173.368 69.1151C173.659 69.1151 173.865 69.2005 173.985 69.3736C174.102 69.5468 174.144 69.7614 174.107 70.02C174.07 70.2785 173.96 70.5468 173.779 70.8273C173.596 71.1077 173.351 71.3541 173.04 71.5687C173.331 71.598 173.605 71.5443 173.862 71.4077C174.117 71.2711 174.383 71.1175 174.657 70.9443C174.932 70.7712 175.215 70.6102 175.507 70.4614C175.798 70.3102 176.128 70.2224 176.493 70.1931C177.058 70.1639 177.435 70.2785 177.616 70.537C177.799 70.7955 177.816 71.2175 177.67 71.8053C177.616 72.0053 177.496 72.2784 177.312 72.6223C177.129 72.9662 176.891 73.3491 176.6 73.7735C176.307 74.1955 175.969 74.6296 175.587 75.0759C175.203 75.5198 174.787 75.9466 174.339 76.3564C173.892 76.7661 173.422 77.1271 172.928 77.4417C172.433 77.7563 171.932 77.9929 171.42 78.1514C172.26 78.2953 172.901 78.5953 173.339 79.0539C174.435 78.1514 175.604 77.032 176.847 75.6979C177.102 75.4247 177.364 75.1491 177.628 74.8686C177.892 74.5881 178.154 74.3052 178.408 74.0198C178.408 74.0345 178.423 74.0881 178.45 74.1808C178.477 74.2735 178.492 74.393 178.492 74.5369C178.492 74.6808 178.455 74.8491 178.382 75.0418C178.308 75.2344 178.171 75.4393 177.97 75.654L177.503 76.1052C176.808 76.9222 176.15 77.6246 175.531 78.2124C174.91 78.8002 174.325 79.3173 173.777 79.7612C173.997 80.3343 174.019 80.9758 173.845 81.6855C173.671 82.3952 173.361 83.0659 172.913 83.6976C172.465 84.3293 171.927 84.8634 171.296 85.3C170.664 85.7366 170.011 85.9707 169.336 86C169.025 86.0146 168.741 85.9707 168.487 85.8707C168.23 85.7707 168.007 85.6293 167.816 85.4512C167.625 85.2707 167.478 85.061 167.378 84.8171C167.278 84.5732 167.246 84.3074 167.283 84.022C167.319 83.6488 167.493 83.2976 167.804 82.9684C168.115 82.6391 168.553 82.3074 169.12 81.9782C169.578 81.705 170.011 81.4367 170.422 81.1709C170.833 80.905 171.229 80.6367 171.614 80.3636C171.467 79.8465 171.107 79.427 170.532 79.1051C169.957 78.7807 169.084 78.6685 167.914 78.7685ZM168.626 84.7488C168.973 84.7927 169.326 84.7171 169.681 84.522C170.038 84.3293 170.361 84.0635 170.654 83.7269C170.946 83.3903 171.188 83.0074 171.381 82.5757C171.572 82.1465 171.687 81.7148 171.724 81.2855C171.322 81.544 170.965 81.766 170.654 81.9513C170.344 82.1367 170.087 82.3099 169.886 82.4684C169.429 82.7977 169.054 83.0928 168.763 83.3513C168.469 83.6098 168.298 83.8537 168.242 84.083C168.134 84.483 168.261 84.7074 168.626 84.7488Z" fill="black"/>
<path d="M180.195 80.4684C179.938 80.5977 179.595 80.6977 179.167 80.7684C178.736 80.8392 178.318 80.8319 177.907 80.7465C177.496 80.6611 177.134 80.4636 176.825 80.1538C176.515 79.8465 176.341 79.3758 176.304 78.7441C176.267 78.1856 176.368 77.5685 176.605 76.8954C176.843 76.2222 177.168 75.5466 177.579 74.8735C177.99 74.2003 178.484 73.554 179.059 72.937C179.634 72.3199 180.251 71.7906 180.909 71.3443C181.567 70.9004 182.252 70.5663 182.964 70.3444C183.677 70.1224 184.381 70.0687 185.074 70.1834C185.402 70.2419 185.658 70.337 185.842 70.4736C186.025 70.6102 186.158 70.7614 186.238 70.9248C186.322 71.0907 186.366 71.2541 186.375 71.4199C186.385 71.5858 186.38 71.7248 186.361 71.8394C186.268 72.4711 185.959 73.0906 185.428 73.7003C184.897 74.3101 184.274 74.8369 183.552 75.2808C182.83 75.7247 182.089 76.0564 181.332 76.271C180.574 76.4856 179.93 76.5076 179.399 76.3344C179.015 77.1515 178.805 77.8393 178.768 78.4002C178.749 78.9026 178.868 79.2295 179.125 79.3782C179.38 79.5295 179.72 79.5465 180.138 79.4319C180.559 79.3173 181.046 79.088 181.604 78.7441C182.162 78.4002 182.732 77.9905 183.317 77.5173C183.848 77.0734 184.396 76.5417 184.961 75.9247C185.526 75.3076 186.104 74.6979 186.689 74.0955C186.689 74.1101 186.706 74.1637 186.742 74.2564C186.779 74.3491 186.796 74.4686 186.796 74.6125C186.796 74.7564 186.76 74.9223 186.686 75.1076C186.613 75.2954 186.466 75.4954 186.248 75.7101C185.68 76.2978 185.147 76.8246 184.645 77.2905C184.141 77.7563 183.65 78.1831 183.165 78.5709C182.681 78.9587 182.196 79.3051 181.712 79.6148C181.23 79.927 180.723 80.2099 180.195 80.4684ZM183.948 70.9394C183.62 71.0394 183.268 71.2443 182.894 71.5516C182.519 71.8589 182.145 72.2321 181.77 72.6711C181.396 73.1077 181.034 73.5808 180.689 74.0906C180.341 74.6003 180.031 75.1125 179.757 75.6296C180.231 75.4857 180.731 75.2613 181.252 74.9515C181.773 74.6442 182.26 74.3028 182.717 73.9296C183.175 73.5564 183.566 73.1687 183.897 72.7687C184.225 72.3662 184.428 71.9931 184.499 71.6492C184.516 71.5638 184.535 71.4711 184.552 71.3687C184.57 71.2687 184.567 71.176 184.538 71.0882C184.511 71.0029 184.45 70.9419 184.359 70.9053C184.269 70.8712 184.132 70.8834 183.948 70.9394Z" fill="black"/>
<path d="M190.882 79.3709C191.103 78.6978 191.379 78.0027 191.719 77.2832C192.057 76.5661 192.422 75.8491 192.815 75.132C193.209 74.415 193.628 73.7004 194.076 72.9906C194.523 72.2809 194.966 71.5882 195.404 70.9151C195.588 70.6419 195.825 70.4565 196.116 70.3565C196.407 70.2566 196.681 70.2102 196.938 70.2175C197.193 70.2248 197.408 70.2761 197.582 70.3687C197.756 70.4614 197.814 70.559 197.761 70.659L193.924 77.8661C193.704 78.3246 193.598 78.6197 193.608 78.749C193.618 78.8783 193.713 78.8856 193.897 78.7709C194.08 78.6563 194.34 78.4441 194.678 78.1368C195.015 77.8295 195.39 77.4588 195.801 77.0295C196.212 76.6003 196.655 76.1296 197.129 75.6198C197.604 75.1101 198.079 74.6052 198.553 74.1028C198.553 74.1174 198.57 74.1711 198.607 74.2638C198.644 74.3564 198.661 74.4759 198.661 74.6198C198.661 74.7637 198.624 74.9296 198.551 75.115C198.477 75.3028 198.331 75.5027 198.113 75.7174C197.545 76.3052 197.048 76.8173 196.618 77.2564C196.19 77.6929 195.786 78.0929 195.412 78.449C195.037 78.8075 194.658 79.1417 194.274 79.449C193.89 79.7587 193.461 80.0685 192.987 80.3855C192.73 80.5587 192.456 80.6611 192.165 80.6977C191.871 80.7343 191.612 80.7026 191.384 80.6002C191.157 80.5002 190.988 80.3465 190.878 80.1368C190.772 79.927 190.772 79.6734 190.882 79.3709ZM197.543 67.842C197.817 67.5127 198.154 67.2835 198.556 67.1542C198.957 67.0249 199.304 67.0396 199.598 67.1981C199.889 67.3566 200.036 67.603 200.036 67.9395C200.036 68.2761 199.899 68.6103 199.625 68.9395C199.351 69.2688 199.013 69.498 198.612 69.6273C198.211 69.7566 197.863 69.7419 197.57 69.5834C197.276 69.4249 197.134 69.1785 197.144 68.842C197.156 68.5054 197.288 68.1712 197.543 67.842Z" fill="black"/>
<path d="M203.929 68.0347H205.436C205.656 68.02 205.806 68.0493 205.889 68.12C205.972 68.1907 205.994 68.2737 205.957 68.3663C205.921 68.459 205.825 68.5493 205.669 68.6346C205.512 68.72 205.316 68.7712 205.079 68.7858H203.515L198.827 77.8636C198.607 78.3222 198.502 78.6173 198.512 78.7465C198.521 78.8758 198.617 78.8856 198.8 78.7782C198.984 78.6709 199.243 78.4636 199.581 78.1539C199.919 77.8466 200.293 77.4758 200.704 77.0466C201.115 76.6173 201.558 76.1466 202.033 75.6369C202.507 75.1271 202.982 74.6223 203.459 74.1198C203.476 74.1491 203.501 74.2101 203.528 74.3028C203.555 74.3954 203.564 74.5101 203.555 74.6467C203.545 74.7832 203.503 74.9442 203.432 75.1296C203.359 75.3149 203.222 75.51 203.021 75.71C202.454 76.2978 201.957 76.81 201.526 77.249C201.096 77.6856 200.689 78.0856 200.308 78.4417C199.924 78.8002 199.544 79.1343 199.17 79.4416C198.796 79.7514 198.37 80.0611 197.895 80.3782C197.638 80.5514 197.364 80.6538 197.073 80.6904C196.779 80.727 196.52 80.6953 196.292 80.5928C196.065 80.4928 195.896 80.3392 195.786 80.1294C195.676 79.9221 195.666 79.666 195.759 79.366C195.96 78.8075 196.197 78.2295 196.471 77.6344C196.745 77.0393 197.066 76.4051 197.43 75.7296C198.052 74.5393 198.681 73.3394 199.322 72.1272C199.96 70.9151 200.565 69.8078 201.13 68.8029H200.91C200.709 68.8029 200.562 68.7639 200.472 68.6834C200.379 68.6054 200.352 68.5176 200.388 68.4249C200.425 68.3322 200.516 68.2468 200.662 68.1663C200.809 68.0883 201.01 68.0493 201.264 68.0493H201.538C201.739 67.72 201.927 67.4103 202.101 67.1249C202.275 66.8371 202.434 66.5737 202.581 66.3298C202.764 66.0567 203.002 65.8713 203.293 65.7713C203.584 65.6713 203.858 65.625 204.115 65.6323C204.369 65.6396 204.585 65.6908 204.758 65.7835C204.932 65.8762 204.991 65.9737 204.937 66.0737L203.929 68.0347Z" fill="black"/>
</g>
<defs>
<clipPath id="clip0_812_12">
<rect width="230" height="86" fill="white"/>
</clipPath>
</defs>
</svg>
