<svg width="231" height="56" viewBox="0 0 231 56" fill="none" xmlns="http://www.w3.org/2000/svg">
<path d="M97.0129 3.48047H87.3506V25.3152H96.9062C96.9062 25.3152 106.675 24.3239 106.675 14.399C106.675 4.47174 97.0129 3.48047 97.0129 3.48047ZM95.6496 20.1037H93.4202V8.56802H95.897C95.897 8.56802 101.137 9.31148 101.137 14.399C101.137 19.4842 95.6496 20.1037 95.6496 20.1037Z" fill="#1081A9" stroke="#1C637C" stroke-miterlimit="10"/>
<path d="M109.152 3.48047H115.098V11.916L121.912 3.48047H128.724L120.549 13.7771L129.345 25.3152H121.789L114.974 16.6318V25.3152H109.152V3.48047Z" fill="#1081A9" stroke="#1C637C" stroke-miterlimit="10"/>
<path d="M155.482 11.0488V4.59825C155.482 4.59825 152.384 2.61328 148.297 2.61328C144.209 2.61328 137.023 6.2115 137.023 14.3385C137.023 22.4654 143.093 26.1876 148.915 26.1876C154.737 26.1876 157.287 23.707 157.287 23.707V13.1625H147.406V17.752H151.147V20.8546H147.409C147.409 20.8546 142.972 19.9873 142.972 14.4041C142.972 8.82088 148.423 7.95351 148.423 7.95351C153.253 7.94622 155.482 11.0488 155.482 11.0488Z" fill="#1081A9" stroke="#1C637C" stroke-miterlimit="10"/>
<path d="M160.438 3.48047H166.755V20.1037H174.644V25.3152H160.438V3.48047Z" fill="#1081A9" stroke="#1C637C" stroke-miterlimit="10"/>
<path d="M186.575 2.61084L174.644 25.3153H180.876L182.174 22.463H190.168L191.776 25.3153H197.848L186.575 2.61084ZM184.096 18.1189L186.245 12.4118L188.394 18.1189H184.096Z" fill="#1081A9" stroke="#1C637C" stroke-miterlimit="10"/>
<path d="M198.957 18.119V24.6959C198.957 24.6959 202.431 26.1852 206.271 26.1852C210.111 26.1852 213.209 23.0827 213.209 18.4932C213.209 12.4119 203.546 11.2992 203.546 8.5683C203.546 5.83745 208.75 7.07897 211.227 9.80739V4.10029C211.227 4.10029 209.24 2.73486 205.339 2.73486C201.438 2.73486 198.343 5.2179 198.343 8.56587C198.343 15.2642 207.634 17.0014 207.634 19.2342C207.634 21.467 202.423 21.5909 198.957 18.119Z" fill="#1081A9" stroke="#1C637C" stroke-miterlimit="10"/>
<path d="M167.177 30.9785L157.673 49.0668H162.638L163.672 46.7951H170.04L171.321 49.0668H176.158L167.177 30.9785ZM165.203 43.333L166.915 38.7872L168.628 43.333H165.203Z" fill="#1081A9" stroke="#1C637C" stroke-miterlimit="10"/>
<path d="M177.041 43.333V48.5711C177.041 48.5711 179.612 49.4458 182.672 49.4458C185.731 49.4458 188.059 47.3345 188.059 43.678C188.059 38.8334 180.694 37.9004 180.694 35.7235C180.694 33.549 184.84 34.5354 186.813 36.7099V32.1641C186.813 32.1641 185.228 31.0781 182.123 31.0781C179.018 31.0781 176.549 33.0558 176.549 35.7235C176.549 41.0589 183.95 42.4437 183.95 44.2222C183.95 46.0006 179.802 46.0978 177.041 43.333Z" fill="#1081A9" stroke="#1C637C" stroke-miterlimit="10"/>
<path d="M215.373 18.119V24.6959C215.373 24.6959 218.847 26.1852 222.687 26.1852C226.527 26.1852 229.625 23.0827 229.625 18.4932C229.625 12.4119 219.963 11.2992 219.963 8.5683C219.963 5.83745 225.166 7.07897 227.643 9.80739V4.10029C227.643 4.10029 225.656 2.73486 221.755 2.73486C217.854 2.73486 214.759 5.2179 214.759 8.56587C214.759 15.2642 224.05 17.0014 224.05 19.2342C224.05 21.467 218.837 21.5909 215.373 18.119Z" fill="#1081A9" stroke="#1C637C" stroke-miterlimit="10"/>
<path d="M108.014 45.6122C108.014 45.6122 109.989 43.2141 109.989 40.4833C108.502 40.4226 107.801 40.5222 106.314 40.4639C106.202 41.0713 105.812 42.4513 105.528 43.0028C105.084 42.4901 103.206 40.1966 103.053 40.0435C104.446 38.7559 105.567 37.7816 105.746 35.8914C105.933 33.887 105.055 32.3223 103.592 31.3942C100.759 29.5963 96.0183 31.1245 95.5671 35.0337C95.3609 36.8049 95.8703 37.8618 97.1367 39.1179C94.1625 40.3885 93.3062 43.9868 94.2232 46.2827C94.9436 48.0928 96.3264 49.2249 98.2404 49.5724C100.14 49.9174 103.66 49.7813 104.776 48.2677C104.79 48.2677 105.404 49.3221 105.404 49.3221H111.042L108.014 45.6122ZM100.686 34.1251C101.486 34.1251 102.132 34.7713 102.132 35.5707C102.132 36.37 101.486 37.0187 100.686 37.0187C99.8876 37.0187 99.2423 36.37 99.2423 35.5707C99.2423 34.7713 99.8876 34.1251 100.686 34.1251ZM100.555 45.8284C99.9895 45.8284 99.565 45.7336 99.3564 45.5636C99.0847 45.34 98.9124 45.1019 98.8299 44.8298C98.6917 44.3804 98.6771 44.1082 98.6868 43.96C98.7208 43.4571 98.8469 43.0368 99.0725 42.6796C99.1356 42.58 99.3928 42.2885 99.5238 42.1451L102.149 45.5951C101.634 45.7506 101.105 45.8284 100.555 45.8284Z" fill="#1081A9" stroke="#1C637C" stroke-miterlimit="10"/>
<path d="M115.903 31.6445H120.86L124.326 39.6452L127.982 31.6445H132.875L124.389 50.0681L115.903 31.6445Z" fill="#1081A9" stroke="#1C637C" stroke-miterlimit="10"/>
<path d="M133.186 31.6445V49.0647H144.643V44.4849H138.079V42.1889H143.343V37.9712L137.952 38.0319V35.923H144.396V31.6445H133.186Z" fill="#1081A9" stroke="#1C637C" stroke-miterlimit="10"/>
<path d="M146.501 31.6445V49.0647H157.675V44.4217H151.581V31.6445H146.501Z" fill="#1081A9" stroke="#1C637C" stroke-miterlimit="10"/>
<path d="M203.175 37.4927V32.4683C203.175 32.4683 201.565 30.8721 198.345 30.8721C191.905 30.8721 188.93 35.6924 188.93 39.915C188.93 44.1376 191.099 49.6503 198.345 49.6503C202.928 49.6503 203.486 47.4783 203.486 47.4783V42.8256C203.486 42.8256 200.638 44.9345 198.345 44.9345C196.053 44.9345 193.763 44.0137 193.763 39.915C193.763 35.8163 196.921 35.3206 198.345 35.3206C200.449 35.3206 201.936 36.2512 203.175 37.4927Z" fill="#1081A9" stroke="#1C637C" stroke-miterlimit="10"/>
<path d="M213.206 30.9785C208.245 30.9785 204.226 35.0262 204.226 40.0214C204.226 45.0167 208.245 49.0644 213.206 49.0644C218.167 49.0644 222.19 45.0167 222.19 40.0214C222.19 35.0262 218.167 30.9785 213.206 30.9785ZM213.206 44.9268C210.916 44.9268 209.058 42.7304 209.058 40.0214C209.058 37.3125 210.916 35.1161 213.206 35.1161C215.499 35.1161 217.357 37.3125 217.357 40.0214C217.357 42.7304 215.499 44.9268 213.206 44.9268Z" fill="#1081A9" stroke="#1C637C" stroke-miterlimit="10"/>
<path d="M51.0542 5.09375H59.1058L76.9459 34.8683H68.8918L51.0542 5.09375Z" fill="#1081A9" stroke="#1C637C" stroke-width="0.9758" stroke-miterlimit="10"/>
<path d="M36.6856 1H44.7371L65.1754 34.8684H57.1238L36.6856 1Z" fill="#1081A9" stroke="#1C637C" stroke-width="0.9758" stroke-miterlimit="10"/>
<path d="M49.0116 43.9866H85.9872L89.8274 37.7231H55.0181L49.0116 43.9866Z" fill="#1C637C" stroke="#1081A9" stroke-width="0.9758" stroke-miterlimit="10"/>
<path d="M39.7204 53.9117H70.2285L73.9717 47.896H45.4795L39.7204 53.9117Z" fill="#1C637C" stroke="#1081A9" stroke-width="0.8828" stroke-miterlimit="10"/>
<path d="M22.1908 20.726L37.5516 5.83748L35.3222 2.23926L28.013 12.1666L22.1908 20.726Z" fill="#D91F26" stroke="#9A1C1F" stroke-miterlimit="10"/>
<path d="M16.7301 34.8685L40.7732 10.9249L38.5438 7.32666L17.6083 28.6657L17.1862 31.6444L11.1675 37.971L5.2216 46.4066L16.7301 34.8685Z" fill="#D91F26" stroke="#9A1C1F" stroke-miterlimit="10"/>
<path d="M19.828 39.6453L43.8711 15.7017L41.6393 12.1035L21.3733 32.636L20.9536 35.6146L2 55.0003H4.51081L19.828 39.6453Z" fill="#D91F26" stroke="#9A1C1F" stroke-miterlimit="10"/>
<path d="M25.5094 41.392L46.69 20.172L44.725 16.9819L24.5512 37.354L24.9054 39.7496L9.80413 55.0001H12.0166L25.5094 41.392Z" fill="#D91F26" stroke="#9A1C1F" stroke-width="0.8836" stroke-miterlimit="10"/>
<path d="M31.2103 43.4644L49.5623 25.0943L47.6191 22.0913L28.3356 41.4284L28.6437 43.5008L17.3608 55.0001H19.7625L31.2103 43.4644Z" fill="#D91F26" stroke="#9A1C1F" stroke-width="0.7652" stroke-miterlimit="10"/>
<path d="M33.9273 48.2408L52.2793 29.8706L50.3337 26.8677L31.8532 45.369L31.8265 48.4473L25.2402 54.9999H27.3992L33.9273 48.2408Z" fill="#D91F26" stroke="#9A1C1F" stroke-width="0.7652" stroke-miterlimit="10"/>
<path d="M37.6001 52.3909L55.285 34.6622L53.4122 31.7612L35.6036 49.6211L35.5769 52.5925L33.1607 55.0002H35.0869L37.6001 52.3909Z" fill="#D91F26" stroke="#9A1C1F" stroke-width="0.738" stroke-miterlimit="10"/>
</svg>
