<svg width="248" height="84" viewBox="0 0 248 84" fill="none" xmlns="http://www.w3.org/2000/svg">
<path d="M98.4858 3.45856H88.8601V25.0991H98.3794C98.3794 25.0991 108.111 24.1167 108.111 14.2801C108.111 4.44102 98.4858 3.45856 98.4858 3.45856ZM97.1276 19.934H94.9067V8.50088H97.3741C97.3741 8.50088 102.594 9.23773 102.594 14.2801C102.594 19.32 97.1276 19.934 97.1276 19.934Z" fill="#1081A9" stroke="#1C637C" stroke-miterlimit="10"/>
<path d="M110.579 3.45856H116.502V11.8191L123.291 3.45856H130.077L121.932 13.6636L130.695 25.0991H123.167L116.379 16.493V25.0991H110.579V3.45856Z" fill="#1081A9" stroke="#1C637C" stroke-miterlimit="10"/>
<path d="M156.733 10.9594V4.5662C156.733 4.5662 153.647 2.59888 149.575 2.59888C145.502 2.59888 138.344 6.16511 138.344 14.2198C138.344 22.2745 144.391 25.9636 150.191 25.9636C155.991 25.9636 158.531 23.505 158.531 23.505V13.0544H148.688V17.603H152.414V20.678H148.69C148.69 20.678 144.27 19.8184 144.27 14.2848C144.27 8.75129 149.7 7.89163 149.7 7.89163C154.512 7.88441 156.733 10.9594 156.733 10.9594Z" fill="#1081A9" stroke="#1C637C" stroke-miterlimit="10"/>
<path d="M161.67 3.45856H167.963V19.934H175.822V25.0991H161.67V3.45856Z" fill="#1081A9" stroke="#1C637C" stroke-miterlimit="10"/>
<path d="M187.708 2.5965L175.822 25.0991H182.031L183.324 22.2722H191.287L192.889 25.0991H198.938L187.708 2.5965ZM185.238 17.9667L187.379 12.3103L189.52 17.9667H185.238Z" fill="#1081A9" stroke="#1C637C" stroke-miterlimit="10"/>
<path d="M200.042 17.9667V24.4851C200.042 24.4851 203.503 25.9612 207.329 25.9612C211.154 25.9612 214.24 22.8862 214.24 18.3375C214.24 12.3103 204.615 11.2075 204.615 8.50088C204.615 5.7943 209.798 7.02478 212.266 9.72895V4.07259C212.266 4.07259 210.287 2.7193 206.401 2.7193C202.515 2.7193 199.431 5.18026 199.431 8.49847C199.431 15.1373 208.687 16.859 208.687 19.0719C208.687 21.2849 203.496 21.4077 200.042 17.9667Z" fill="#1081A9" stroke="#1C637C" stroke-miterlimit="10"/>
<path d="M168.384 30.7122L158.915 48.6396H163.862L164.891 46.3882H171.235L172.511 48.6396H177.33L168.384 30.7122ZM166.416 42.9568L168.123 38.4514L169.829 42.9568H166.416Z" fill="#1081A9" stroke="#1C637C" stroke-miterlimit="10"/>
<path d="M178.21 42.9568V48.1484C178.21 48.1484 180.772 49.0153 183.819 49.0153C186.866 49.0153 189.186 46.9228 189.186 43.2987C189.186 38.4972 181.849 37.5725 181.849 35.415C181.849 33.2598 185.979 34.2375 187.944 36.3926V31.8873C187.944 31.8873 186.366 30.8109 183.273 30.8109C180.179 30.8109 177.719 32.771 177.719 35.415C177.719 40.7029 185.093 42.0755 185.093 43.8381C185.093 45.6008 180.96 45.6971 178.21 42.9568Z" fill="#1081A9" stroke="#1C637C" stroke-miterlimit="10"/>
<path d="M216.396 17.9667V24.4851C216.396 24.4851 219.857 25.9612 223.682 25.9612C227.508 25.9612 230.594 22.8862 230.594 18.3375C230.594 12.3103 220.968 11.2075 220.968 8.50088C220.968 5.7943 226.152 7.02478 228.619 9.72895V4.07259C228.619 4.07259 226.64 2.7193 222.754 2.7193C218.868 2.7193 215.784 5.18026 215.784 8.49847C215.784 15.1373 225.04 16.859 225.04 19.0719C225.04 21.2849 219.847 21.4077 216.396 17.9667Z" fill="#1081A9" stroke="#1C637C" stroke-miterlimit="10"/>
<path d="M109.446 45.2155C109.446 45.2155 111.413 42.8388 111.413 40.1322C109.931 40.072 109.233 40.1708 107.751 40.113C107.64 40.715 107.251 42.0827 106.968 42.6293C106.526 42.1212 104.656 39.8481 104.503 39.6964C105.891 38.4201 107.007 37.4545 107.186 35.5811C107.372 33.5945 106.497 32.0438 105.04 31.1239C102.217 29.342 97.4951 30.8567 97.0456 34.7311C96.8401 36.4865 97.3476 37.534 98.6092 38.7789C95.6463 40.0383 94.7932 43.6045 95.7067 45.8801C96.4245 47.674 97.802 48.7962 99.7087 49.1405C101.601 49.4824 105.108 49.3476 106.219 47.8474C106.234 47.8474 106.845 48.8925 106.845 48.8925H112.462L109.446 45.2155ZM102.145 33.8305C102.942 33.8305 103.585 34.471 103.585 35.2633C103.585 36.0555 102.942 36.6984 102.145 36.6984C101.35 36.6984 100.707 36.0555 100.707 35.2633C100.707 34.471 101.35 33.8305 102.145 33.8305ZM102.014 45.4298C101.451 45.4298 101.028 45.3359 100.82 45.1673C100.55 44.9458 100.378 44.7098 100.296 44.4401C100.158 43.9946 100.144 43.7249 100.153 43.5781C100.187 43.0796 100.313 42.663 100.538 42.309C100.601 42.2103 100.857 41.9214 100.987 41.7793L103.602 45.1986C103.09 45.3527 102.563 45.4298 102.014 45.4298Z" fill="#1081A9" stroke="#1C637C" stroke-miterlimit="10"/>
<path d="M117.305 31.3719H122.242L125.695 39.3015L129.337 31.3719H134.212L125.758 49.6317L117.305 31.3719Z" fill="#1081A9" stroke="#1C637C" stroke-miterlimit="10"/>
<path d="M134.521 31.3719V48.6372H145.935V44.0982H139.395V41.8226H144.64V37.6423L139.27 37.7025V35.6124H145.688V31.3719H134.521Z" fill="#1081A9" stroke="#1C637C" stroke-miterlimit="10"/>
<path d="M147.786 31.3719V48.6372H158.917V44.0356H152.847V31.3719H147.786Z" fill="#1081A9" stroke="#1C637C" stroke-miterlimit="10"/>
<path d="M204.245 37.168V32.1882C204.245 32.1882 202.64 30.6062 199.433 30.6062C193.017 30.6062 190.054 35.3836 190.054 39.5687C190.054 43.7538 192.214 49.2175 199.433 49.2175C203.998 49.2175 204.554 47.0648 204.554 47.0648V42.4535C204.554 42.4535 201.717 44.5436 199.433 44.5436C197.149 44.5436 194.868 43.631 194.868 39.5687C194.868 35.5065 198.015 35.0152 199.433 35.0152C201.528 35.0152 203.01 35.9375 204.245 37.168Z" fill="#1081A9" stroke="#1C637C" stroke-miterlimit="10"/>
<path d="M214.238 30.7122C209.296 30.7122 205.291 34.7239 205.291 39.6747C205.291 44.6255 209.296 48.6372 214.238 48.6372C219.18 48.6372 223.187 44.6255 223.187 39.6747C223.187 34.7239 219.18 30.7122 214.238 30.7122ZM214.238 44.5364C211.956 44.5364 210.105 42.3596 210.105 39.6747C210.105 36.9898 211.956 34.813 214.238 34.813C216.522 34.813 218.373 36.9898 218.373 39.6747C218.373 42.3596 216.522 44.5364 214.238 44.5364Z" fill="#1081A9" stroke="#1C637C" stroke-miterlimit="10"/>
<path d="M52.7017 5.05743H60.7226L78.4949 34.5673H70.4715L52.7017 5.05743Z" fill="#1081A9" stroke="#1C637C" stroke-width="0.9758" stroke-miterlimit="10"/>
<path d="M38.3877 1H46.4087L66.7692 34.5673H58.7483L38.3877 1Z" fill="#1081A9" stroke="#1C637C" stroke-width="0.9758" stroke-miterlimit="10"/>
<path d="M50.667 43.6045H87.5021L91.3277 37.3967H56.6507L50.667 43.6045Z" fill="#1C637C" stroke="#1081A9" stroke-width="0.9758" stroke-miterlimit="10"/>
<path d="M41.4111 53.4412H71.8034L75.5323 47.479H47.1483L41.4111 53.4412Z" fill="#1C637C" stroke="#1081A9" stroke-width="0.8828" stroke-miterlimit="10"/>
<path d="M23.948 20.5505L39.2504 5.79432L37.0295 2.22809L29.748 12.0671L23.948 20.5505Z" fill="#D91F26" stroke="#9A1C1F" stroke-miterlimit="10"/>
<path d="M18.5082 34.5673L42.46 10.8366L40.239 7.27039L19.383 28.4197L18.9625 31.3719L12.9668 37.6423L7.04346 46.0029L18.5082 34.5673Z" fill="#D91F26" stroke="#9A1C1F" stroke-miterlimit="10"/>
<path d="M21.5942 39.3015L45.546 15.5707L43.3226 12.0045L23.1336 32.3544L22.7155 35.3066L3.83398 54.5199H6.33525L21.5942 39.3015Z" fill="#D91F26" stroke="#9A1C1F" stroke-miterlimit="10"/>
<path d="M27.254 41.0328L48.3541 20.0014L46.3966 16.8397L26.2994 37.0307L26.6523 39.405L11.6084 54.5199H13.8124L27.254 41.0328Z" fill="#D91F26" stroke="#9A1C1F" stroke-width="0.8836" stroke-miterlimit="10"/>
<path d="M32.9333 43.0868L51.2156 24.88L49.2798 21.9037L30.0696 41.0689L30.3765 43.1229L19.1365 54.5199H21.529L32.9333 43.0868Z" fill="#D91F26" stroke="#9A1C1F" stroke-width="0.7652" stroke-miterlimit="10"/>
<path d="M35.64 47.8209L53.9222 29.6141L51.984 26.6378L33.5737 44.9746L33.5471 48.0256L26.9858 54.5199H29.1367L35.64 47.8209Z" fill="#D91F26" stroke="#9A1C1F" stroke-width="0.7652" stroke-miterlimit="10"/>
<path d="M39.2988 51.9338L56.9164 34.3627L55.0507 31.4875L37.3098 49.1887L37.2832 52.1336L34.8762 54.5199H36.7951L39.2988 51.9338Z" fill="#D91F26" stroke="#9A1C1F" stroke-width="0.738" stroke-miterlimit="10"/>
<g clip-path="url(#clip0_1702_300)">
<path d="M129.566 84C129.319 83.9065 129.071 83.8157 128.826 83.7181C127.799 83.3014 127.388 82.6357 127.46 81.5134C127.523 80.5369 128.25 79.6251 129.162 79.3789C129.998 79.1534 130.544 79.6168 130.42 80.2247C129.873 80.4723 129.352 80.5823 129.038 80.878C128.555 81.3319 128.839 81.8669 129.529 81.937C130.47 82.0319 131.375 81.8655 131.966 81.1723C132.726 80.2811 133.42 79.328 134.013 78.3378C134.449 77.613 134.678 76.7837 134.898 75.9488C134.304 76.4687 133.74 77.0202 133.11 77.5002C132.428 78.0215 131.648 78.39 130.715 78.2635C129.213 78.06 128.341 76.7795 128.719 75.3492C128.823 74.9586 128.956 74.5749 129.093 74.1265C128.704 74.3053 128.386 74.4676 128.055 74.6024C126.473 75.2447 124.965 74.4676 124.812 72.8158C124.727 71.8943 124.951 70.9481 125.035 70.0088C124.573 70.453 123.986 70.9165 123.536 71.4735C122.676 72.5339 121.804 73.6011 121.113 74.755C120.71 75.4262 120.68 76.2789 120.423 77.034C120.284 77.4438 120.118 78.0297 119.79 78.1562C119.406 78.3048 118.763 78.1507 118.356 77.9334C117.461 77.4534 117.074 76.3848 117.356 75.4069C118.098 72.8337 119.283 70.4337 120.785 68.1644C120.965 67.8935 121.193 67.6418 121.44 67.4204C122.314 66.6378 123.879 66.7822 124.537 67.734C124.661 67.9141 124.627 68.2992 124.496 68.4945C124.143 69.0268 123.699 69.5081 123.246 70.0638C124.588 69.1134 125.846 68.2016 127.126 67.32C127.974 66.7355 128.872 66.7616 129.774 67.2402C130.589 67.6734 130.648 67.9595 130.052 68.632C129.345 69.4297 128.604 70.2054 127.952 71.0403C127.645 71.4336 127.414 71.926 127.322 72.4018C127.189 73.1019 127.707 73.4856 128.338 73.0964C129.093 72.6301 129.797 72.0002 130.305 71.3071C131.12 70.1972 131.71 68.9484 132.48 67.8082C133.333 66.5443 134.42 66.6158 135.692 67.5359C136.135 67.8564 136.172 68.1466 135.806 68.6183C134.624 70.1394 133.426 71.6633 132.428 73.2862C131.91 74.1279 131.794 75.1786 131.512 76.14C131.478 76.2583 131.545 76.4027 131.596 76.7286C131.99 76.4632 132.326 76.3009 132.573 76.0616C134.616 74.0784 136.399 71.9136 137.957 69.5852C138.447 68.8494 139.019 68.1424 139.661 67.5139C140.543 66.6488 142.123 66.7946 142.838 67.7738C142.968 67.9526 142.95 68.3982 142.799 68.5509C139.575 71.8132 137.96 75.8512 136.271 79.8575C135.699 81.215 134.951 82.4844 133.551 83.2794C133.013 83.5847 132.39 83.7676 131.806 84.0055C131.062 84 130.314 84 129.566 84Z" fill="black"/>
<path d="M43.1319 76.6804C43.4147 76.5044 43.7797 76.3834 43.9682 76.1441C44.7087 75.202 45.3893 74.2186 46.1028 73.2572C46.6354 72.5407 47.1709 71.8241 47.7334 71.1268C48.1941 70.5561 48.6594 70.9316 49.0827 71.1915C49.5106 71.4556 49.8606 71.7389 49.4971 72.3083C49.0588 72.9946 48.6639 73.7097 48.3303 74.4442C48.1448 74.8526 48.0565 75.3216 48.0356 75.7686C47.9982 76.6062 48.5517 76.9129 49.3131 76.4205C49.9728 75.9928 50.5876 75.455 51.0738 74.8623C51.6826 74.121 52.1494 73.2806 52.658 72.4719C53.6647 70.8738 54.5952 69.2316 55.6767 67.6789C56.4172 66.6158 58.0927 66.6323 59.0156 67.5785C59.3836 67.9553 59.237 68.2331 58.9334 68.5894C58.0343 69.6429 57.1846 70.7308 56.3155 71.8063C56.3843 71.8613 56.4546 71.9177 56.5234 71.9727C56.7209 71.7746 56.9019 71.5601 57.1188 71.3827C58.5713 70.2026 60.0044 68.9992 61.5004 67.8659C62.4548 67.1439 63.5228 67.0682 64.5909 67.7435C65.2701 68.1726 65.3075 68.4945 64.7914 69.0817C64.1018 69.8698 63.4421 70.6812 62.9005 71.5738C64.0344 70.596 65.1459 69.5975 66.3097 68.6513C66.8632 68.2001 67.508 67.8412 68.1243 67.4575C69.0637 66.8716 69.9718 67.0985 70.8289 67.617C71.5066 68.0255 71.5081 68.295 70.998 68.8878C69.4048 70.7363 67.9612 72.6727 66.9635 74.8581C66.7316 75.3684 66.6284 75.9281 66.4668 76.4645C66.5356 76.5305 66.6044 76.5966 66.6733 76.6612C67.0308 76.5292 67.487 76.4838 67.7264 76.25C68.6553 75.3381 69.5185 74.3699 70.3981 73.4154C70.5342 73.2669 70.6285 73.0867 70.7422 72.9217C70.8244 72.9423 70.9082 72.9615 70.9905 72.9822C70.8843 73.4635 70.8558 73.9738 70.6554 74.4194C70.0316 75.8099 68.9725 76.8964 67.6336 77.7422C66.5431 78.4312 65.5109 78.4643 64.6463 77.8894C63.6994 77.2595 63.2416 76.184 63.6829 75.0851C64.2304 73.7194 64.9485 72.4128 65.5947 71.0815C65.6725 70.9219 65.7652 70.7706 65.7129 70.5176C65.2491 71.0223 64.7555 71.5078 64.3276 72.0373C62.8886 73.817 61.6111 75.6888 60.7105 77.7573C60.5205 78.1919 60.2288 78.3377 59.7322 78.2827C58.0807 78.097 57.0036 76.6873 57.5646 75.1676C58.151 73.5804 58.9513 72.0593 59.6589 70.5079C59.231 70.9577 58.7449 71.4212 58.32 71.9273C56.8106 73.7221 55.5227 75.6407 54.6012 77.7532C54.4127 78.1837 54.1285 78.3418 53.6258 78.28C52.3693 78.1245 51.6482 77.4273 51.2727 76.3559C50.8 76.7602 50.3707 77.1769 49.889 77.5318C48.1223 78.8356 46.3542 78.4202 45.4207 76.4521C44.3167 77.6391 43.1634 78.7338 41.2471 78.0998C40.1925 77.7505 39.8379 77.2278 39.5836 75.7562C38.8611 76.2733 38.173 76.8317 37.4145 77.2925C36.2761 77.9856 35.0585 78.4409 33.6224 78.2332C32.0068 78.0008 30.3777 76.7368 30.9596 74.8251C31.012 74.6546 30.9911 74.4648 31.0075 74.2461C30.644 74.3919 30.3179 74.5363 29.9813 74.6546C28.7741 75.0796 27.8466 74.7674 27.2468 73.7235C26.7202 72.8034 26.6933 71.8461 27.0538 70.871C27.163 70.5767 27.2692 70.2824 27.3156 69.9578C25.2647 71.6962 23.4726 73.5942 22.6528 76.1083C22.5346 76.4728 22.6034 76.8854 22.5316 77.2663C22.3416 78.2621 21.5608 78.5715 20.6183 78.0448C19.6236 77.4864 19.1688 76.3971 19.5248 75.2267C20.2833 72.7305 21.4351 70.3883 22.8966 68.1726C23.0507 67.9388 23.2302 67.7146 23.4322 67.5138C24.3178 66.6281 25.9199 66.7052 26.6439 67.7091C26.7815 67.9003 26.7352 68.3308 26.5901 68.5453C26.2161 69.101 25.7374 69.5975 25.3634 70.171C26.231 69.4888 27.0837 68.7888 27.9738 68.1327C28.4764 67.7628 29.0329 67.4533 29.5819 67.1411C30.5797 66.5759 31.5505 66.9747 32.2701 67.4698C32.6455 67.7284 32.6829 68.0158 32.3972 68.3418C31.7719 69.0515 31.1033 69.7336 30.5258 70.4736C30.113 71.0031 29.7644 71.5903 29.4966 72.1927C29.3904 72.4307 29.4802 72.9382 29.6642 73.0399C29.9155 73.1788 30.4585 73.1733 30.6754 73.0069C31.3561 72.4884 32.0517 71.9342 32.5408 71.2699C33.5281 69.9331 34.5364 68.6237 36.0353 67.7463C36.689 67.3639 37.446 67.0531 38.1999 66.9073C39.9621 66.5662 41.1708 67.7532 40.8148 69.3733C40.4094 71.2149 37.8828 73.3824 35.8678 73.5969C35.609 73.6245 35.3382 73.5502 34.8999 73.5048C34.7353 74.3424 34.5349 75.1786 34.4362 76.0258C34.4167 76.1922 34.7982 76.5594 34.9822 76.5525C35.5372 76.5305 36.146 76.4769 36.6232 76.2445C38.4781 75.3409 39.9905 74.0769 41.0945 72.4128C42.3212 70.563 43.7213 68.8369 45.7289 67.639C46.3362 67.2759 47.0617 67.0187 47.7708 66.8743C48.7162 66.6804 49.4657 67.3103 49.53 68.2043C49.6018 69.1931 49.2518 69.9028 48.4544 70.1737C48.5083 69.8918 48.5801 69.6676 48.5846 69.4421C48.5891 69.2096 48.6145 68.8809 48.4709 68.7682C48.3153 68.6471 47.9069 68.632 47.7259 68.7393C47.1889 69.0528 46.6219 69.3843 46.224 69.8272C44.77 71.4418 43.6974 73.26 43.0916 75.2927C42.9764 75.6778 42.9629 76.0891 42.9016 76.4879C42.9794 76.5594 43.0557 76.6199 43.1319 76.6804ZM35.6718 71.7416C35.7511 71.7994 35.8319 71.8572 35.9111 71.9149C37.1318 71.5546 38.1954 70.9494 38.9045 69.9482C39.1349 69.6236 39.0825 69.1299 39.1588 68.7145C38.719 68.8452 38.1326 68.8548 37.8648 69.1285C37.066 69.9441 36.3928 70.8628 35.6718 71.7416Z" fill="black"/>
<path d="M175.652 76.6887C177.482 76.2349 178.285 74.9723 179.352 73.9078C179.19 74.5363 179.041 75.1126 178.875 75.7604C179.854 75.0851 180.3 73.8789 180.015 72.9189C179.97 72.7704 180.009 72.5641 180.091 72.4252C181.041 70.8202 181.959 69.1987 182.982 67.6349C183.686 66.5608 185.552 66.6722 186.291 67.7559C186.589 68.1919 186.335 68.4573 186.021 68.7627C184.104 70.6207 182.745 72.7759 182.016 75.2515C181.896 75.6572 181.911 76.0973 181.843 76.7149C184.094 76.0423 185.125 74.4799 186.14 72.9024C186.223 72.9203 186.303 72.9368 186.386 72.9547C186.311 73.4333 186.35 73.9573 186.143 74.3809C185.431 75.8415 184.395 77.0999 182.921 77.9829C181.615 78.7655 179.564 77.9843 179.092 76.5759C179.035 76.4068 178.991 76.2349 178.928 76.0162C178.49 76.4549 178.092 76.8276 177.724 77.2251C175.982 79.1038 173.356 78.2992 172.723 76.3036C172.275 76.7217 171.86 77.1495 171.4 77.5304C169.823 78.8315 167.823 78.4354 166.945 76.6626C166.915 76.6034 166.861 76.5553 166.786 76.459C166.402 76.7919 166.044 77.1288 165.655 77.4314C163.839 78.8521 162.025 78.4822 161.027 76.4563C160.194 77.3764 159.332 78.258 157.923 78.2937C156.614 78.3267 155.679 77.6336 155.241 76.3971C154.548 76.8895 153.875 77.4369 153.13 77.8798C152.163 78.4533 151.161 78.4505 150.213 77.7821C149.393 77.2045 149.037 76.4412 149.423 75.5472C150.101 73.9821 150.84 72.4334 151.667 70.9302C152.449 69.5095 153.377 68.1562 154.319 66.6474C153.942 66.7547 153.68 66.8441 153.41 66.9046C152.892 67.0201 152.41 67.0298 152.177 66.4617C151.93 65.8607 152.093 65.2294 152.687 65.0713C153.315 64.9035 154.009 64.8485 154.665 64.887C155.344 64.9269 155.743 64.7632 156.09 64.2007C156.552 63.4525 157.076 62.6686 158.256 62.8212C158.33 62.8309 158.407 62.8226 158.479 62.835C160.198 63.1403 160.469 63.8142 159.359 65.0424C159.136 65.2886 158.886 65.5141 158.611 65.7865C159.114 66.305 159.657 66.8221 159.333 67.6266C159.157 68.064 158.961 68.2112 158.565 67.8178C158.277 67.5331 157.978 67.2581 157.645 66.9431C157.543 67.0325 157.446 67.093 157.383 67.1755C155.638 69.4586 154.003 71.8008 152.832 74.3878C152.624 74.8485 152.463 75.3326 152.35 75.8209C152.3 76.0396 152.343 76.4343 152.481 76.4962C152.698 76.5952 153.122 76.5801 153.294 76.4412C153.981 75.8897 154.705 75.3368 155.227 74.6615C156.246 73.3412 157.031 71.8599 158.116 70.5932C159.058 69.493 160.229 68.5385 161.404 67.6335C161.924 67.2319 162.681 67.0353 163.368 66.884C164.21 66.6983 164.995 67.148 165.075 67.9292C165.138 68.5536 164.904 69.211 164.737 69.8396C164.696 69.9908 164.399 70.083 164.219 70.2026C164.165 70.1683 164.111 70.1325 164.058 70.0981C164.114 69.8684 164.17 69.6374 164.231 69.4091C164.393 68.7998 164.062 68.4642 163.447 68.7434C162.823 69.0267 162.204 69.4352 161.766 69.9262C160.319 71.5477 159.278 73.3879 158.671 75.4165C158.563 75.7741 158.593 76.1675 158.538 76.785C159.012 76.5168 159.365 76.4178 159.54 76.1991C160.231 75.3381 160.865 74.44 161.522 73.5557C162.11 72.7621 162.69 71.9644 163.292 71.1791C163.748 70.5836 164.234 70.8876 164.699 71.1833C165.16 71.4762 165.477 71.7678 165.093 72.3592C164.611 73.1005 164.212 73.8927 163.841 74.6876C163.69 75.0122 163.654 75.4 163.648 75.7604C163.631 76.6268 164.261 76.9707 164.992 76.382C165.895 75.6572 166.841 74.8485 167.374 73.8899C169.639 69.8107 172.197 65.8992 174.952 62.0909C175.799 60.9205 177.135 60.8683 178.206 61.9053C178.613 62.3 178.593 62.6204 178.184 63.0207C174.697 66.4287 172.183 70.3979 170.296 74.7179C170.044 75.2941 169.904 75.9103 169.678 76.6117C170.773 76.5484 171.386 76.0052 171.905 75.4605C172.62 74.7124 173.259 73.8885 173.818 73.0345C176.201 69.3967 178.52 65.7218 180.915 62.0909C181.675 60.9398 182.903 60.8628 184.003 61.765C184.616 62.267 184.644 62.5035 184.07 63.0633C182.181 64.9035 180.541 66.9266 179.237 69.1423C178.058 71.142 177.075 73.2408 176.034 75.3065C175.853 75.6668 175.814 76.0863 175.652 76.6887Z" fill="black"/>
<path d="M7.49953 79.4379C7.49953 79.7913 7.51598 80.0403 7.49654 80.2865C7.42922 81.1598 6.8503 81.4775 5.95873 81.1392C4.35361 80.5299 3.6221 79.0858 4.17858 77.5702C4.37605 77.0324 4.63035 76.5112 4.87269 75.9514C4.29975 76.1605 3.76122 76.4465 3.1838 76.5497C1.45451 76.8619 0.118657 75.7039 0.0124464 73.9214C-0.107227 71.9299 0.767886 70.2232 1.82401 68.592C3.95719 65.2953 6.8144 62.7427 10.8743 61.5228C12.5662 61.0153 14.2985 60.9396 16.0038 61.4526C18.8536 62.3081 20.1012 64.576 19.8573 66.9911C19.4056 71.4651 17.0106 74.9997 13.2005 77.7394C11.5729 78.9084 9.7464 79.6373 7.49953 79.4379ZM7.93334 77.4464C9.13307 77.3625 10.0755 76.9086 10.9446 76.3434C13.9634 74.3808 15.935 71.7291 16.9134 68.46C17.3217 67.0956 17.4339 65.7038 16.9089 64.3422C16.2761 62.7056 15.039 62.0495 13.6044 62.205C12.6964 62.304 11.7449 62.5859 10.9581 63.0109C7.10012 65.0987 4.3192 68.0845 2.70211 71.9203C2.3401 72.7799 2.24586 73.7866 2.27129 74.7191C2.29971 75.7451 3.14939 76.1302 4.10379 75.5801C4.75751 75.2032 5.38729 74.6779 5.80016 74.0837C6.73212 72.7428 7.50701 71.3083 8.37614 69.9288C9.38439 68.3279 10.3971 66.7284 11.4667 65.1605C11.9634 64.4344 12.4061 64.3752 13.2409 64.7603C13.5475 64.902 13.8482 65.0835 14.0965 65.3008C14.6874 65.818 14.659 66.1425 14.0861 66.6858C13.4114 67.3253 12.7038 67.9442 12.104 68.6401C9.893 71.2024 8.73516 74.1951 7.93334 77.4464Z" fill="black"/>
<path d="M107.482 79.4862C104.209 79.5811 101.744 77.5992 101.996 73.9326C102.366 68.5743 105.231 64.5253 110.394 61.9493C111.884 61.2066 113.527 60.9549 115.229 61.2919C117.356 61.7127 118.27 63.0702 117.798 65.0438C117.356 66.8867 116.347 68.3748 114.65 69.4421C113.416 70.2178 112.101 70.2137 110.77 69.6594C110.55 69.5673 110.29 69.4352 110.187 69.2551C110.047 69.0116 109.974 68.6953 110.011 68.4257C110.026 68.3143 110.394 68.1878 110.614 68.1658C112.543 67.976 114.113 67.1948 115.315 65.8002C115.558 65.5169 115.774 65.1951 115.922 64.8609C116.398 63.7867 115.898 63.1513 114.638 63.0839C113.099 63 111.804 63.5419 110.68 64.4056C107.217 67.0655 105.202 70.4296 105.042 74.634C105.026 75.0796 105.121 75.5458 105.254 75.9791C105.718 77.4809 107.018 78.1232 108.74 77.7395C111.518 77.122 113.449 74.9861 113.672 72.3138C113.687 72.1391 113.866 71.8297 113.95 71.8352C114.225 71.8517 114.647 71.9177 114.737 72.0869C115.096 72.7704 115.488 73.4801 115.617 74.2173C115.844 75.5087 115.135 76.5278 114.088 77.3214C112.176 78.7724 109.934 79.4133 107.482 79.4862Z" fill="black"/>
<path d="M86.8621 66.7203C85.0775 67.0449 85.0775 67.0449 84.6451 66.045C82.8919 65.8676 82.1993 64.7041 83.052 63.2655C83.3422 62.7759 83.7685 62.3275 84.2218 61.952C84.9219 61.3744 85.7117 61.4198 86.4462 61.9768C87.2376 62.5764 87.2525 63.0977 86.4881 63.7221C86.0124 64.1113 85.5277 64.4909 85.0371 64.8815C86.0079 64.8815 86.8202 64.8485 87.628 64.8939C88.0947 64.92 88.3745 64.7852 88.5719 64.4125C88.6916 64.1883 88.8472 63.9765 89.0072 63.773C89.9557 62.5737 90.7934 62.5311 92.2878 63.2985C92.7785 63.5502 92.9011 63.9243 92.5137 64.3712C92.0978 64.8499 91.6969 65.3381 91.29 65.8236C92.1936 66.851 92.2639 67.2581 91.6101 68.1122C91.1614 67.7271 90.7201 67.3488 90.1815 66.8881C88.0678 69.9482 85.6549 72.7952 84.8336 76.4288C85.604 76.7492 86.0722 76.5003 86.4103 76.1414C87.2196 75.2804 87.9691 74.3713 88.7395 73.4787C88.8831 73.3123 89.0042 73.1321 89.1344 72.9575C89.2226 72.9863 89.3109 73.0152 89.3977 73.0441C89.2989 73.5103 89.281 74.0096 89.085 74.4387C88.4403 75.8484 87.3662 76.9542 85.972 77.7766C84.2427 78.7971 82.5523 78.2332 81.8552 76.3449C81.4678 76.7107 81.1252 77.0532 80.7617 77.3737C79.6039 78.3969 78.5418 78.5661 77.3181 77.9362C76.2126 77.3681 75.6487 76.1964 76.0601 74.9036C76.9337 72.1598 78.4416 69.6897 80.1888 67.3433C80.5358 66.8771 81.0878 66.7561 81.7206 66.895C82.4626 67.0586 83.0939 67.3612 83.396 68.0145C83.4664 68.1685 83.2285 68.5041 83.0475 68.6843C81.2344 70.4887 79.8747 72.5352 79.1102 74.8953C78.9442 75.4055 78.8918 75.9474 78.7497 76.6681C80.7528 76.2913 81.5501 74.8843 82.7109 73.7345C82.5523 74.1389 82.4132 74.4689 82.2936 74.8045C82.1649 75.1676 82.0542 75.5348 82.0153 75.9268C82.8216 75.0892 83.5367 74.2283 83.2928 72.9946C83.2554 72.802 83.3542 72.5586 83.4634 72.3757C84.5838 70.497 85.7162 68.6238 86.8621 66.7203Z" fill="black"/>
<path d="M221.42 72.8584C222.645 70.8229 223.872 68.7888 225.131 66.6969C224.894 66.7492 224.668 66.7836 224.452 66.8496C223.779 67.0573 223.227 67.0587 223.003 66.2761C222.97 66.1606 222.734 66.0478 222.573 66.0175C221.278 65.7755 220.623 64.8581 221.125 63.751C221.42 63.1018 221.906 62.4829 222.448 61.9796C223.136 61.34 224.054 61.4198 224.792 62.0277C225.484 62.5985 225.453 63.1926 224.74 63.7496C224.259 64.1251 223.818 64.5445 223.428 64.8829C224.279 64.8829 225.118 64.9173 225.951 64.8636C226.238 64.8457 226.547 64.6477 226.774 64.4593C226.988 64.2832 227.111 64.0123 227.268 63.7812C228.233 62.3591 229.552 62.7071 230.654 63.3824C231.036 63.6162 231.108 63.9256 230.84 64.264C230.432 64.7811 229.999 65.2817 229.529 65.8484C230.271 66.437 230.589 67.1659 229.9 68.1603C229.408 67.7326 228.968 67.3502 228.463 66.9115C227.96 67.5909 227.42 68.2194 226.998 68.9099C225.845 70.7996 224.734 72.7113 223.628 74.6244C223.446 74.9407 223.317 75.3065 223.268 75.6614C223.229 75.9502 223.347 76.2569 223.395 76.5553C223.742 76.4811 224.18 76.5017 224.416 76.3119C225.048 75.8044 225.631 75.2336 226.161 74.6326C226.626 74.1059 226.992 73.5062 227.402 72.9396C227.474 72.9506 227.544 72.9616 227.616 72.9726C227.552 73.4058 227.571 73.8679 227.408 74.2668C226.772 75.8182 225.627 77.0037 224.09 77.8495C222.386 78.7875 220.705 78.148 220.137 76.3724C219.688 76.7726 219.261 77.1839 218.799 77.558C217.727 78.4258 216.651 78.5303 215.514 77.9059C214.489 77.3434 213.939 76.1826 214.288 75.048C215.136 72.2767 216.642 69.7928 218.388 67.4259C218.735 66.9569 219.241 66.7588 219.882 66.8771C220.651 67.0201 221.333 67.3117 221.646 67.9898C221.73 68.1727 221.46 68.5729 221.247 68.7806C219.42 70.5589 218.12 72.6123 217.344 74.9476C217.236 75.2735 217.145 75.6091 217.101 75.9461C217.018 76.5842 217.324 76.8098 217.902 76.4577C218.599 76.0341 219.227 75.506 219.842 74.9792C220.22 74.656 220.517 74.2503 220.85 73.8831C220.629 74.5694 220.407 75.2556 220.186 75.9406C220.65 75.5912 220.995 75.1869 221.245 74.7371C221.571 74.1458 221.775 73.5158 221.42 72.8584Z" fill="black"/>
<path d="M191.339 75.9832C192.486 76.2445 193.548 76.3916 194.529 76.7327C195.68 77.1329 196.82 77.617 197.859 78.2167C199.571 79.2028 199.28 81.1517 198.506 82.3716C198.248 82.7759 197.989 82.648 197.684 82.3606C196.836 81.5601 196.022 80.7102 195.075 80.017C192.618 78.2167 189.79 77.9636 186.806 78.5468C186.501 78.6059 186.184 78.6155 185.844 78.6499C185.709 77.8192 186.178 77.3007 186.739 76.8936C187.929 76.0327 189.205 75.2707 190.384 74.3974C192.359 72.934 194.286 71.4157 196.229 69.9179C196.319 69.8492 196.383 69.7543 196.504 69.6222C194.158 69.0253 191.919 68.8122 189.802 70.0733C189.301 70.3718 189.048 70.2246 188.842 69.7749C188.098 68.1534 189.225 66.5401 191.204 66.5607C192.309 66.5717 193.415 66.8179 194.513 66.994C196.141 67.2539 197.756 67.3777 199.39 67.0008C199.632 66.9445 200.031 67.0999 200.221 67.28C200.956 67.9787 200.987 68.9249 200.206 69.5961C199.212 70.4516 198.138 71.2369 197.05 71.9947C195.427 73.128 193.762 74.209 192.123 75.3216C191.868 75.4963 191.651 75.7177 191.339 75.9832Z" fill="black"/>
<path d="M203.154 73.465C202.955 74.2366 202.72 74.9779 202.584 75.7343C202.462 76.4041 202.708 76.6571 203.438 76.5898C203.966 76.5402 204.513 76.4 204.988 76.1799C206.433 75.5074 207.564 74.4731 208.618 73.3646C208.739 73.2367 208.868 73.1129 209.073 72.9094C209.257 73.7552 209.079 74.4071 208.54 74.9572C207.35 76.1758 206.051 77.3104 204.364 77.8894C203.56 78.1659 202.609 78.2745 201.756 78.192C199.747 78.0008 198.634 76.4536 199.186 74.6134C200.017 71.849 201.637 69.515 204.163 67.7917C204.762 67.3833 205.516 67.0848 206.247 66.9418C208.286 66.5429 209.576 67.8784 208.895 69.7007C208.117 71.783 206.425 73.0043 204.153 73.5847C204.059 73.6094 203.955 73.641 203.864 73.6273C203.665 73.597 203.475 73.5406 203.154 73.465ZM203.846 71.7307C203.921 71.7981 203.997 71.8655 204.072 71.9329C205.314 71.5423 206.428 70.9468 207.151 69.8878C207.362 69.5783 207.297 69.1079 207.359 68.7118C206.955 68.8164 206.412 68.804 206.174 69.0461C205.341 69.8946 204.614 70.8299 203.846 71.7307Z" fill="black"/>
<path d="M141.831 72.7058C141.831 73.183 141.818 73.5887 141.834 73.9931C141.865 74.7702 142.388 75.4633 143.089 75.5981C143.738 75.7233 144.394 75.7233 144.872 75.1993C145.326 74.7014 145.278 74.1292 145.004 73.5846C144.619 72.8186 144.112 72.0979 143.797 71.3112C143.513 70.6029 143.188 69.8038 143.284 69.09C143.553 67.0985 145.55 65.825 147.724 66.1881C148.477 66.3146 149.257 66.6117 149.882 67.0174C150.825 67.6294 151.004 68.5536 150.554 69.3816C150.093 70.2274 149.103 70.6469 147.879 70.4392C148.077 70.2398 148.277 70.1064 148.373 69.9249C148.612 69.4696 148.935 69.002 148.971 68.5234C148.995 68.2098 148.655 67.7518 148.337 67.5662C147.899 67.3131 147.423 67.5455 147.097 67.9169C146.455 68.6499 146.476 69.5109 146.72 70.3306C147.046 71.4212 147.562 72.4637 147.908 73.5516C148.359 74.971 148.367 76.3862 147.118 77.5002C145.852 78.6293 144.278 78.87 142.61 78.4437C140.779 77.9747 139.915 76.4164 140.404 74.5859C140.709 73.443 141.011 73.018 141.831 72.7058Z" fill="black"/>
<path d="M188.14 61.5518C189.029 61.5559 189.55 61.9108 189.889 62.4403C190.166 62.8708 190.084 63.3177 189.617 63.6575C188.836 64.2268 188.049 64.7825 187.787 65.7548C187.755 65.8772 187.279 65.9996 187.042 65.957C186.099 65.7851 185.539 64.8389 185.778 63.9587C186.031 63.0262 186.589 62.2972 187.469 61.7898C187.711 61.6508 188.01 61.5958 188.14 61.5518Z" fill="black"/>
<path d="M88.6483 80.5397C88.3282 80.3911 88.0395 80.2563 87.7493 80.1229C87.9019 79.8671 88.0574 79.6127 88.2085 79.3569C88.6274 78.6458 89.1076 77.9582 89.4412 77.2141C89.7149 76.6048 90.1412 76.3752 91.0253 76.6035C91.7808 76.7988 92.0156 77.1673 91.7733 77.8179C91.4247 78.7517 90.8129 79.5205 89.9198 80.0638C89.5638 80.2783 89.1195 80.3677 88.6483 80.5397Z" fill="black"/>
<path d="M221.42 72.8584C221.775 73.5158 221.571 74.1457 221.245 74.7371C220.997 75.1868 220.65 75.5912 220.186 75.9405C220.407 75.2542 220.629 74.5679 220.85 73.8816C221.04 73.5406 221.23 73.1995 221.42 72.8584Z" fill="black"/>
<path d="M7.93283 77.4465C8.73314 74.1939 9.89248 71.2025 12.102 68.643C12.7018 67.9471 13.4109 67.3296 14.0841 66.6887C14.657 66.1454 14.6839 65.8208 14.0945 65.3037C13.8462 65.0864 13.547 64.9049 13.2389 64.7632C12.4041 64.3781 11.9613 64.4359 11.4647 65.1634C10.3951 66.7299 9.38237 68.3308 8.37412 69.9317C7.50499 71.3112 6.7316 72.7443 5.79815 74.0866C5.38527 74.6794 4.75549 75.2061 4.10177 75.583C3.14738 76.1331 2.29769 75.748 2.26927 74.722C2.24384 73.7882 2.33808 72.7828 2.7001 71.9232C4.31569 68.0874 7.09661 65.1015 10.9546 63.0152C11.7414 62.5888 12.6928 62.3069 13.6009 62.2092C15.037 62.0538 16.2741 62.7085 16.9054 64.3465C17.4304 65.7081 17.3182 67.0999 16.9098 68.4642C15.9315 71.7334 13.9599 74.3851 10.9411 76.3477C10.0765 76.9088 9.13405 77.3626 7.93283 77.4465Z" fill="white"/>
</g>
<path d="M236.384 50.072C235.184 50.072 234.072 49.856 233.048 49.424C232.024 48.992 231.128 48.392 230.36 47.624C229.592 46.84 228.992 45.936 228.56 44.912C228.144 43.888 227.936 42.784 227.936 41.6C227.936 40.416 228.152 39.312 228.584 38.288C229.016 37.264 229.616 36.368 230.384 35.6C231.152 34.816 232.048 34.208 233.072 33.776C234.112 33.344 235.232 33.128 236.432 33.128C237.632 33.128 238.744 33.344 239.768 33.776C240.808 34.192 241.704 34.784 242.456 35.552C243.224 36.32 243.816 37.216 244.232 38.24C244.664 39.248 244.88 40.352 244.88 41.552C244.88 42.752 244.664 43.872 244.232 44.912C243.8 45.936 243.192 46.84 242.408 47.624C241.64 48.392 240.744 48.992 239.72 49.424C238.696 49.856 237.584 50.072 236.384 50.072ZM238.64 46.256L236.336 42.704H238.832L241.136 46.256H238.64ZM236.384 48.512C237.36 48.512 238.264 48.336 239.096 47.984C239.928 47.616 240.656 47.12 241.28 46.496C241.904 45.872 242.384 45.136 242.72 44.288C243.072 43.44 243.248 42.528 243.248 41.552C243.248 40.576 243.072 39.672 242.72 38.84C242.384 37.992 241.912 37.264 241.304 36.656C240.712 36.032 240 35.552 239.168 35.216C238.336 34.864 237.424 34.688 236.432 34.688C235.456 34.688 234.544 34.864 233.696 35.216C232.864 35.568 232.136 36.064 231.512 36.704C230.904 37.328 230.432 38.056 230.096 38.888C229.76 39.72 229.592 40.624 229.592 41.6C229.592 42.576 229.76 43.488 230.096 44.336C230.432 45.168 230.904 45.896 231.512 46.52C232.12 47.144 232.84 47.632 233.672 47.984C234.504 48.336 235.408 48.512 236.384 48.512ZM232.736 46.256V36.944H236.792C238.056 36.944 239.048 37.24 239.768 37.832C240.488 38.424 240.848 39.232 240.848 40.256C240.848 41.328 240.488 42.152 239.768 42.728C239.048 43.288 238.056 43.568 236.792 43.568H235.232V46.256H232.736ZM235.208 41.696H236.624C237.184 41.696 237.616 41.568 237.92 41.312C238.24 41.056 238.4 40.704 238.4 40.256C238.4 39.792 238.24 39.432 237.92 39.176C237.616 38.92 237.184 38.792 236.624 38.792H235.208V41.696Z" fill="black"/>
<defs>
<clipPath id="clip0_1702_300">
<rect width="231" height="22.8966" fill="white" transform="translate(0 61.1035)"/>
</clipPath>
</defs>
</svg>
