<svg width="213" height="54" viewBox="0 0 213 54" fill="none" xmlns="http://www.w3.org/2000/svg">
<path d="M88.8636 2.44727H79.8801V23.9878H88.7644C88.7644 23.9878 97.8471 23.0099 97.8471 13.2188C97.8471 3.42518 88.8636 2.44727 88.8636 2.44727ZM87.596 18.8466H85.5233V7.46629H87.8261C87.8261 7.46629 92.6979 8.19973 92.6979 13.2188C92.6979 18.2354 87.596 18.8466 87.596 18.8466Z" fill="white"/>
<path d="M100.15 2.44727H105.678V10.7692L112.014 2.44727H118.347L110.746 12.6052L118.924 23.9878H111.899L105.563 15.4215V23.9878H100.15V2.44727Z" fill="white"/>
<path d="M143.225 9.91369V3.55003C143.225 3.55003 140.345 1.5918 136.544 1.5918C132.744 1.5918 126.063 5.14155 126.063 13.159C126.063 21.1765 131.706 24.8485 137.119 24.8485C142.532 24.8485 144.903 22.4013 144.903 22.4013V11.999H135.716V16.5266H139.194V19.5874H135.719C135.719 19.5874 131.593 18.7317 131.593 13.2238C131.593 7.71577 136.661 6.86009 136.661 6.86009C141.152 6.8529 143.225 9.91369 143.225 9.91369Z" fill="white"/>
<path d="M147.833 2.44727H153.706V18.8466H161.04V23.9878H147.833V2.44727Z" fill="white"/>
<path d="M172.133 1.58936L161.041 23.988H166.835L168.041 21.1741H175.473L176.969 23.988H182.614L172.133 1.58936ZM169.828 16.8885L171.826 11.2583L173.824 16.8885H169.828Z" fill="white"/>
<path d="M183.644 16.8878V23.3761C183.644 23.3761 186.874 24.8454 190.445 24.8454C194.015 24.8454 196.895 21.7846 196.895 17.257C196.895 11.2576 187.912 10.1599 187.912 7.4658C187.912 4.77173 192.75 5.99652 195.052 8.68819V3.05797C195.052 3.05797 193.205 1.71094 189.578 1.71094C185.952 1.71094 183.074 4.16053 183.074 7.4634C183.074 14.0715 191.712 15.7853 191.712 17.988C191.712 20.1907 186.867 20.313 183.644 16.8878Z" fill="white"/>
<path d="M154.098 29.5747L145.261 47.4193H149.878L150.839 45.1783H156.76L157.95 47.4193H162.448L154.098 29.5747ZM152.262 41.7627L153.854 37.2782L155.447 41.7627H152.262Z" fill="white"/>
<path d="M163.269 41.7626V46.9302C163.269 46.9302 165.66 47.7931 168.504 47.7931C171.348 47.7931 173.513 45.7102 173.513 42.103C173.513 37.3236 166.666 36.4032 166.666 34.2556C166.666 32.1105 170.52 33.0836 172.354 35.2288V30.7442C172.354 30.7442 170.881 29.6729 167.994 29.6729C165.107 29.6729 162.811 31.6239 162.811 34.2556C162.811 39.5192 169.692 40.8854 169.692 42.6399C169.692 44.3944 165.836 44.4902 163.269 41.7626Z" fill="white"/>
<path d="M198.907 16.8878V23.3761C198.907 23.3761 202.137 24.8454 205.707 24.8454C209.278 24.8454 212.158 21.7846 212.158 17.257C212.158 11.2576 203.174 10.1599 203.174 7.4658C203.174 4.77173 208.012 5.99652 210.315 8.68819V3.05797C210.315 3.05797 208.468 1.71094 204.841 1.71094C201.214 1.71094 198.336 4.16053 198.336 7.4634C198.336 14.0715 206.975 15.7853 206.975 17.988C206.975 20.1907 202.128 20.313 198.907 16.8878Z" fill="white"/>
<path d="M99.0921 44.0111C99.0921 44.0111 100.928 41.6454 100.928 38.9514C99.5455 38.8914 98.8937 38.9897 97.5111 38.9322C97.4073 39.5314 97.0442 40.8928 96.7803 41.4369C96.3675 40.9312 94.6218 38.6685 94.4797 38.5175C95.7744 37.2472 96.8164 36.2861 96.9833 34.4213C97.157 32.4439 96.3405 30.9003 94.9804 29.9847C92.3461 28.211 87.9389 29.7187 87.5194 33.5752C87.3277 35.3225 87.8013 36.3651 88.9787 37.6043C86.2135 38.8579 85.4173 42.4076 86.2699 44.6727C86.9398 46.4583 88.2254 47.5753 90.0049 47.918C91.7709 48.2584 95.0436 48.1241 96.0811 46.6309C96.0946 46.6309 96.6653 47.6711 96.6653 47.6711H101.907L99.0921 44.0111ZM92.2784 32.6788C93.0227 32.6788 93.6227 33.3163 93.6227 34.1049C93.6227 34.8935 93.0227 35.5334 92.2784 35.5334C91.5364 35.5334 90.9364 34.8935 90.9364 34.1049C90.9364 33.3163 91.5364 32.6788 92.2784 32.6788ZM92.1566 44.2245C91.6311 44.2245 91.2364 44.131 91.0424 43.9632C90.7898 43.7427 90.6297 43.5078 90.553 43.2393C90.4244 42.7959 90.4109 42.5275 90.4199 42.3813C90.4515 41.8851 90.5688 41.4705 90.7785 41.1181C90.8372 41.0198 91.0763 40.7322 91.1981 40.5908L93.6384 43.9943C93.1603 44.1477 92.6686 44.2245 92.1566 44.2245Z" fill="white"/>
<path d="M106.427 30.2314H111.035L114.258 38.1243L117.657 30.2314H122.206L114.316 48.4068L106.427 30.2314Z" fill="white"/>
<path d="M122.495 30.2314V47.4169H133.147V42.8988H127.044V40.6338H131.938V36.4729L126.927 36.5328V34.4523H132.917V30.2314H122.495Z" fill="white"/>
<path d="M134.875 30.2314V47.4169H145.264V42.8365H139.598V30.2314H134.875Z" fill="white"/>
<path d="M187.567 36.0012V31.0445C187.567 31.0445 186.069 29.4697 183.076 29.4697C177.088 29.4697 174.323 34.2251 174.323 38.3908C174.323 42.5566 176.339 47.9951 183.076 47.9951C187.337 47.9951 187.855 45.8523 187.855 45.8523V41.2623C187.855 41.2623 185.208 43.3427 183.076 43.3427C180.945 43.3427 178.816 42.4343 178.816 38.3908C178.816 34.3473 181.752 33.8584 183.076 33.8584C185.032 33.8584 186.414 34.7764 187.567 36.0012Z" fill="white"/>
<path d="M196.893 29.5747C192.281 29.5747 188.543 33.5679 188.543 38.4958C188.543 43.4238 192.281 47.4169 196.893 47.4169C201.505 47.4169 205.245 43.4238 205.245 38.4958C205.245 33.5679 201.505 29.5747 196.893 29.5747ZM196.893 43.3351C194.764 43.3351 193.036 41.1683 193.036 38.4958C193.036 35.8233 194.764 33.6566 196.893 33.6566C199.024 33.6566 200.752 35.8233 200.752 38.4958C200.752 41.1683 199.024 43.3351 196.893 43.3351Z" fill="white"/>
<path d="M46.1343 4.03857H53.6201L70.2067 33.4121H62.7186L46.1343 4.03857Z" fill="white"/>
<path d="M32.7751 0H40.261L59.2632 33.4122H51.7773L32.7751 0Z" fill="white"/>
<path d="M44.2351 42.4076H78.6127L82.1831 36.2285H49.8196L44.2351 42.4076Z" fill="white"/>
<path d="M35.5967 52.1988H63.9612L67.4414 46.2642H40.9511L35.5967 52.1988Z" fill="white"/>
<path d="M19.2988 19.4599L33.5803 4.77192L31.5076 1.22217L24.7119 11.0157L19.2988 19.4599Z" fill="white"/>
<path d="M14.2216 33.4125L36.5754 9.79145L34.5026 6.2417L15.0381 27.2933L14.6456 30.2319L9.04984 36.4733L3.52173 44.7952L14.2216 33.4125Z" fill="white"/>
<path d="M17.1019 38.1244L39.4557 14.5034L37.3807 10.9536L18.5387 31.2095L18.1485 34.148L0.526611 53.2726H2.861L17.1019 38.1244Z" fill="white"/>
<path d="M22.3843 39.8479L42.0766 18.9137L40.2497 15.7666L21.4934 35.8643L21.8227 38.2276L7.78247 53.2727H9.83944L22.3843 39.8479Z" fill="white"/>
<path d="M27.6847 41.8923L44.7472 23.7696L42.9406 20.8071L25.012 39.8837L25.2985 41.9283L14.8083 53.2726H17.0412L27.6847 41.8923Z" fill="white"/>
<path d="M30.2106 46.6042L47.2731 28.4816L45.4642 25.519L28.2822 43.7711L28.2573 46.808L22.1338 53.2723H24.1411L30.2106 46.6042Z" fill="white"/>
<path d="M33.6255 50.6984L50.0678 33.2085L48.3266 30.3467L31.7693 47.966L31.7445 50.8974L29.498 53.2726H31.2889L33.6255 50.6984Z" fill="white"/>
</svg>
