<svg width="242" height="88" viewBox="0 0 242 88" fill="none" xmlns="http://www.w3.org/2000/svg">
<path d="M102.749 3.57703H92.707V26.2605H102.638C102.638 26.2605 112.792 25.2307 112.792 14.92C112.792 4.60683 102.749 3.57703 102.749 3.57703ZM101.332 20.8465H99.0153V8.86236H101.59C101.59 8.86236 107.036 9.63471 107.036 14.92C107.036 20.2028 101.332 20.8465 101.332 20.8465Z" fill="#1081A9" stroke="#1C637C" stroke-miterlimit="10"/>
<path d="M115.366 3.57703H121.546V12.3405L128.628 3.57703H135.708L127.211 14.2739L136.353 26.2605H128.499L121.417 17.2396V26.2605H115.366V3.57703Z" fill="#1081A9" stroke="#1C637C" stroke-miterlimit="10"/>
<path d="M163.518 11.4394V4.73804C163.518 4.73804 160.298 2.6759 156.05 2.6759C151.801 2.6759 144.333 6.414 144.333 14.8569C144.333 23.2998 150.642 27.1666 156.693 27.1666C162.744 27.1666 165.394 24.5896 165.394 24.5896V13.6353H155.124V18.4032H159.012V21.6264H155.127C155.127 21.6264 150.515 20.7253 150.515 14.925C150.515 9.12481 156.181 8.22373 156.181 8.22373C161.201 8.21616 163.518 11.4394 163.518 11.4394Z" fill="#1081A9" stroke="#1C637C" stroke-miterlimit="10"/>
<path d="M168.669 3.57703H175.234V20.8465H183.434V26.2605H168.669V3.57703Z" fill="#1081A9" stroke="#1C637C" stroke-miterlimit="10"/>
<path d="M195.833 2.67346L183.434 26.2606H189.911L191.26 23.2974H199.567L201.239 26.2606H207.55L195.833 2.67346ZM193.257 18.7844L195.49 12.8554L197.724 18.7844H193.257Z" fill="#1081A9" stroke="#1C637C" stroke-miterlimit="10"/>
<path d="M208.702 18.7843V25.6169C208.702 25.6169 212.313 27.1641 216.304 27.1641C220.295 27.1641 223.515 23.9409 223.515 19.173C223.515 12.8554 213.472 11.6993 213.472 8.86233C213.472 6.02532 218.881 7.3151 221.455 10.1496V4.22063C221.455 4.22063 219.39 2.80212 215.336 2.80212C211.281 2.80212 208.064 5.38169 208.064 8.85981C208.064 15.8186 217.721 17.6233 217.721 19.9428C217.721 22.2624 212.305 22.3912 208.702 18.7843Z" fill="#1081A9" stroke="#1C637C" stroke-miterlimit="10"/>
<path d="M175.673 32.144L165.795 50.9355H170.956L172.03 48.5755H178.648L179.98 50.9355H185.007L175.673 32.144ZM173.621 44.9788L175.401 40.2563L177.181 44.9788H173.621Z" fill="#1081A9" stroke="#1C637C" stroke-miterlimit="10"/>
<path d="M185.925 44.9788V50.4206C185.925 50.4206 188.597 51.3293 191.777 51.3293C194.956 51.3293 197.376 49.1359 197.376 45.3372C197.376 40.3043 189.722 39.335 189.722 37.0735C189.722 34.8145 194.031 35.8393 196.08 38.0983V33.3758C196.08 33.3758 194.434 32.2476 191.207 32.2476C187.98 32.2476 185.413 34.3021 185.413 37.0735C185.413 42.6163 193.105 44.055 193.105 45.9026C193.105 47.7502 188.794 47.8511 185.925 44.9788Z" fill="#1081A9" stroke="#1C637C" stroke-miterlimit="10"/>
<path d="M225.764 18.7843V25.6169C225.764 25.6169 229.374 27.1641 233.366 27.1641C237.357 27.1641 240.577 23.9409 240.577 19.173C240.577 12.8554 230.534 11.6993 230.534 8.86233C230.534 6.02532 235.942 7.3151 238.517 10.1496V4.22063C238.517 4.22063 236.452 2.80212 232.397 2.80212C228.343 2.80212 225.126 5.38169 225.126 8.85981C225.126 15.8186 234.783 17.6233 234.783 19.9428C234.783 22.2624 229.364 22.3912 225.764 18.7843Z" fill="#1081A9" stroke="#1C637C" stroke-miterlimit="10"/>
<path d="M114.184 47.3463C114.184 47.3463 116.236 44.8551 116.236 42.0181C114.69 41.955 113.962 42.0585 112.416 41.9979C112.3 42.6289 111.894 44.0625 111.599 44.6355C111.138 44.1029 109.186 41.7202 109.028 41.5612C110.475 40.2235 111.64 39.2113 111.826 37.2476C112.02 35.1653 111.108 33.5398 109.587 32.5757C106.642 30.7079 101.716 32.2955 101.247 36.3567C101.032 38.1967 101.562 39.2946 102.878 40.5996C99.7869 41.9196 98.8969 45.6577 99.85 48.0429C100.599 49.9233 102.036 51.0996 104.025 51.4605C105.999 51.8189 109.658 51.6776 110.818 50.1051C110.833 50.1051 111.471 51.2005 111.471 51.2005H117.33L114.184 47.3463ZM106.567 35.4127C107.399 35.4127 108.069 36.0841 108.069 36.9145C108.069 37.7449 107.399 38.4188 106.567 38.4188C105.737 38.4188 105.067 37.7449 105.067 36.9145C105.067 36.0841 105.737 35.4127 106.567 35.4127ZM106.431 47.571C105.843 47.571 105.402 47.4725 105.185 47.2958C104.903 47.0636 104.724 46.8163 104.638 46.5336C104.494 46.0666 104.479 45.7839 104.489 45.63C104.524 45.1075 104.656 44.6708 104.89 44.2998C104.956 44.1963 105.223 43.8934 105.359 43.7445L108.087 47.3286C107.553 47.4902 107.003 47.571 106.431 47.571Z" fill="#1081A9" stroke="#1C637C" stroke-miterlimit="10"/>
<path d="M122.383 32.8357H127.534L131.137 41.1473L134.936 32.8357H140.022L131.202 51.9755L122.383 32.8357Z" fill="#1081A9" stroke="#1C637C" stroke-miterlimit="10"/>
<path d="M140.344 32.8357V50.933H152.253V46.1752H145.43V43.79H150.901V39.4083L145.299 39.4714V37.2805H151.995V32.8357H140.344Z" fill="#1081A9" stroke="#1C637C" stroke-miterlimit="10"/>
<path d="M154.184 32.8357V50.933H165.797V46.1096H159.463V32.8357H154.184Z" fill="#1081A9" stroke="#1C637C" stroke-miterlimit="10"/>
<path d="M213.087 38.911V33.6912C213.087 33.6912 211.412 32.033 208.067 32.033C201.373 32.033 198.281 37.0406 198.281 41.4274C198.281 45.8142 200.536 51.5412 208.067 51.5412C212.829 51.5412 213.409 49.2847 213.409 49.2847V44.4512C213.409 44.4512 210.449 46.6421 208.067 46.6421C205.684 46.6421 203.304 45.6855 203.304 41.4274C203.304 37.1694 206.587 36.6545 208.067 36.6545C210.253 36.6545 211.798 37.6212 213.087 38.911Z" fill="#1081A9" stroke="#1C637C" stroke-miterlimit="10"/>
<path d="M223.512 32.144C218.356 32.144 214.178 36.3491 214.178 41.5385C214.178 46.7279 218.356 50.933 223.512 50.933C228.668 50.933 232.849 46.7279 232.849 41.5385C232.849 36.3491 228.668 32.144 223.512 32.144ZM223.512 46.6345C221.132 46.6345 219.201 44.3528 219.201 41.5385C219.201 38.7242 221.132 36.4425 223.512 36.4425C225.895 36.4425 227.826 38.7242 227.826 41.5385C227.826 44.3528 225.895 46.6345 223.512 46.6345Z" fill="#1081A9" stroke="#1C637C" stroke-miterlimit="10"/>
<path d="M54.9832 5.25305H63.3514L81.893 36.1851H73.5223L54.9832 5.25305Z" fill="#1081A9" stroke="#1C637C" stroke-width="0.9758" stroke-miterlimit="10"/>
<path d="M40.0496 1H48.4178L69.6597 36.185H61.2915L40.0496 1Z" fill="#1081A9" stroke="#1C637C" stroke-width="0.9758" stroke-miterlimit="10"/>
<path d="M52.8604 45.6577H91.2901L95.2813 39.1508H59.1031L52.8604 45.6577Z" fill="#1C637C" stroke="#1081A9" stroke-width="0.9758" stroke-miterlimit="10"/>
<path d="M43.2039 55.9684H74.9118L78.8021 49.7189H49.1894L43.2039 55.9684Z" fill="#1C637C" stroke="#1081A9" stroke-width="0.8828" stroke-miterlimit="10"/>
<path d="M24.9849 21.4926L40.9498 6.02533L38.6327 2.28723L31.036 12.6004L24.9849 21.4926Z" fill="#D91F26" stroke="#9A1C1F" stroke-miterlimit="10"/>
<path d="M19.3095 36.1851L44.2981 11.3107L41.981 7.57263L20.2222 29.7412L19.7835 32.8357L13.5281 39.4083L7.34839 48.1717L19.3095 36.1851Z" fill="#D91F26" stroke="#9A1C1F" stroke-miterlimit="10"/>
<path d="M22.5291 41.1473L47.5177 16.2729L45.1981 12.5348L24.1351 33.8654L23.6989 36.9599L4 57.0992H6.60955L22.5291 41.1473Z" fill="#D91F26" stroke="#9A1C1F" stroke-miterlimit="10"/>
<path d="M28.434 42.9621L50.4475 20.9172L48.4052 17.6031L27.4381 38.7672L27.8062 41.2559L12.1111 57.0993H14.4105L28.434 42.9621Z" fill="#D91F26" stroke="#9A1C1F" stroke-width="0.8836" stroke-miterlimit="10"/>
<path d="M34.359 45.1151L53.4326 26.0308L51.4131 22.9111L31.3712 42.9999L31.6914 45.1529L19.9648 57.0992H22.4609L34.359 45.1151Z" fill="#D91F26" stroke="#9A1C1F" stroke-width="0.7652" stroke-miterlimit="10"/>
<path d="M37.1828 50.0774L56.2565 30.9931L54.2344 27.8734L35.0271 47.0939L34.9994 50.2919L28.1541 57.0992H30.398L37.1828 50.0774Z" fill="#D91F26" stroke="#9A1C1F" stroke-width="0.7652" stroke-miterlimit="10"/>
<path d="M41.0002 54.3884L59.3805 35.9705L57.4341 32.9568L38.9252 51.511L38.8975 54.5979L36.3862 57.0992H38.3881L41.0002 54.3884Z" fill="#D91F26" stroke="#9A1C1F" stroke-width="0.738" stroke-miterlimit="10"/>
<g clip-path="url(#clip0_1406_61)">
<path d="M135.175 88.0001C134.918 87.902 134.658 87.8069 134.403 87.7045C133.332 87.2677 132.903 86.57 132.978 85.3936C133.043 84.3701 133.802 83.4143 134.754 83.1562C135.626 82.9198 136.196 83.4056 136.066 84.0428C135.495 84.3023 134.952 84.4176 134.624 84.7276C134.12 85.2033 134.417 85.7641 135.136 85.8376C136.118 85.9371 137.062 85.7627 137.678 85.0361C138.471 84.1019 139.195 83.1029 139.815 82.0649C140.269 81.3052 140.508 80.4359 140.737 79.5608C140.118 80.1058 139.529 80.6839 138.872 81.187C138.161 81.7334 137.348 82.1197 136.374 81.9871C134.807 81.7737 133.897 80.4316 134.292 78.9323C134.399 78.5229 134.538 78.1207 134.682 77.6507C134.276 77.8381 133.944 78.0082 133.599 78.1495C131.948 78.8227 130.374 78.0082 130.215 76.2768C130.126 75.311 130.36 74.3191 130.448 73.3345C129.966 73.8001 129.354 74.286 128.884 74.8698C127.987 75.9813 127.077 77.1 126.356 78.3095C125.936 79.013 125.905 79.9068 125.636 80.6983C125.491 81.1279 125.318 81.742 124.976 81.8746C124.575 82.0303 123.904 81.8689 123.479 81.6411C122.546 81.138 122.142 80.0178 122.437 78.9928C123.211 76.2956 124.447 73.78 126.014 71.4013C126.201 71.1173 126.44 70.8535 126.697 70.6214C127.609 69.8011 129.241 69.9525 129.928 70.9501C130.058 71.1389 130.022 71.5426 129.886 71.7473C129.518 72.3052 129.054 72.8098 128.581 73.3922C129.981 72.396 131.294 71.4402 132.63 70.5162C133.514 69.9035 134.451 69.9309 135.392 70.4325C136.243 70.8866 136.303 71.1865 135.682 71.8915C134.944 72.7276 134.172 73.5407 133.491 74.4157C133.171 74.828 132.929 75.3441 132.834 75.8429C132.695 76.5767 133.235 76.9789 133.894 76.5709C134.682 76.0822 135.415 75.422 135.946 74.6954C136.797 73.532 137.411 72.223 138.215 71.0279C139.105 69.7031 140.239 69.778 141.566 70.7425C142.028 71.0784 142.067 71.3826 141.685 71.877C140.452 73.4715 139.202 75.0688 138.161 76.7699C137.621 77.6521 137.499 78.7535 137.205 79.7612C137.17 79.8852 137.24 80.0366 137.293 80.3782C137.703 80.1 138.054 79.9299 138.312 79.6791C140.444 77.6002 142.304 75.3311 143.929 72.8905C144.441 72.1192 145.037 71.3782 145.707 70.7194C146.627 69.8126 148.275 69.9655 149.021 70.9919C149.157 71.1793 149.138 71.6464 148.981 71.8064C145.618 75.2259 143.932 79.4585 142.17 83.6579C141.574 85.0808 140.793 86.4114 139.333 87.2446C138.771 87.5647 138.122 87.7564 137.511 88.0058C136.736 88.0001 135.955 88.0001 135.175 88.0001Z" fill="black"/>
<path d="M44.9989 80.3277C45.2939 80.1432 45.6747 80.0163 45.8714 79.7655C46.6439 78.778 47.354 77.7472 48.0985 76.7395C48.6541 75.9884 49.2128 75.2374 49.7996 74.5065C50.2803 73.9082 50.7657 74.3018 51.2073 74.5742C51.6537 74.851 52.0189 75.148 51.6396 75.7448C51.1824 76.4642 50.7703 77.2138 50.4223 77.9836C50.2288 78.4118 50.1367 78.9034 50.1149 79.3719C50.0758 80.2499 50.6533 80.5713 51.4477 80.0552C52.1359 79.6069 52.7774 79.0432 53.2846 78.4219C53.9198 77.6449 54.4067 76.764 54.9374 75.9164C55.9877 74.2412 56.9584 72.5199 58.0868 70.8923C58.8593 69.778 60.6073 69.7953 61.5702 70.7871C61.9542 71.1821 61.8012 71.4733 61.4844 71.8467C60.5464 72.951 59.66 74.0913 58.7532 75.2186C58.825 75.2763 58.8984 75.3354 58.9701 75.3931C59.1762 75.1855 59.365 74.9606 59.5913 74.7746C61.1067 73.5377 62.6018 72.2763 64.1625 71.0884C65.1582 70.3315 66.2726 70.2523 67.3869 70.9601C68.0954 71.4099 68.1344 71.7472 67.596 72.3628C66.8765 73.1888 66.1883 74.0394 65.6233 74.975C66.8063 73.95 67.9659 72.9034 69.1801 71.9116C69.7576 71.4387 70.4302 71.0624 71.0732 70.6602C72.0533 70.0461 73.0006 70.284 73.8949 70.8275C74.6019 71.2556 74.6035 71.5382 74.0713 72.1595C72.4091 74.097 70.9031 76.1268 69.8621 78.4176C69.6202 78.9524 69.5125 79.5391 69.344 80.1014C69.4158 80.1706 69.4876 80.2398 69.5594 80.3075C69.9324 80.1691 70.4084 80.1215 70.6581 79.8765C71.6272 78.9207 72.5278 77.9058 73.4454 76.9053C73.5875 76.7496 73.6858 76.5608 73.8044 76.3878C73.8902 76.4094 73.9776 76.4296 74.0635 76.4512C73.9527 76.9558 73.923 77.4906 73.7139 77.9577C73.0631 79.4152 71.9581 80.554 70.5613 81.4406C69.4236 82.1629 68.3467 82.1975 67.4446 81.5949C66.4567 80.9346 65.9792 79.8073 66.4396 78.6554C67.0108 77.2239 67.7599 75.8544 68.4341 74.4589C68.5153 74.2917 68.612 74.1331 68.5574 73.8678C68.0736 74.3969 67.5586 74.9058 67.1122 75.4608C65.6108 77.3263 64.278 79.2883 63.3385 81.4565C63.1403 81.912 62.8359 82.0648 62.3178 82.0072C60.5948 81.8126 59.4711 80.3349 60.0564 78.7419C60.6682 77.0783 61.5031 75.4839 62.2413 73.8577C61.795 74.3291 61.2878 74.815 60.8445 75.3455C59.2698 77.2268 57.926 79.2378 56.9647 81.4522C56.768 81.9034 56.4715 82.0692 55.9471 82.0043C54.6361 81.8414 53.8839 81.1105 53.4922 79.9875C52.999 80.4113 52.5511 80.8481 52.0485 81.2201C50.2054 82.5867 48.3607 82.1513 47.3868 80.0884C46.235 81.3325 45.0317 82.48 43.0325 81.8154C41.9322 81.4493 41.5623 80.9015 41.297 79.3589C40.5432 79.901 39.8253 80.4863 39.034 80.9692C37.8464 81.6958 36.576 82.173 35.0777 81.9553C33.3922 81.7117 31.6926 80.3868 32.2997 78.383C32.3543 78.2042 32.3325 78.0053 32.3496 77.776C31.9704 77.9289 31.6302 78.0802 31.279 78.2042C30.0196 78.6497 29.0519 78.3224 28.4261 77.2282C27.8767 76.2638 27.8487 75.2604 28.2248 74.2383C28.3387 73.9298 28.4495 73.6213 28.4979 73.2811C26.3582 75.1033 24.4885 77.0927 23.6333 79.728C23.51 80.11 23.5818 80.5425 23.5068 80.9418C23.3086 81.9856 22.494 82.3099 21.5107 81.7578C20.4729 81.1725 19.9984 80.0307 20.3699 78.8039C21.1611 76.1874 22.3629 73.7323 23.8876 71.4099C24.0484 71.1648 24.2357 70.9298 24.4464 70.7193C25.3703 69.7909 27.0418 69.8717 27.7972 70.924C27.9407 71.1244 27.8924 71.5757 27.741 71.8006C27.3508 72.383 26.8514 72.9034 26.4612 73.5045C27.3664 72.7895 28.256 72.0557 29.1846 71.3681C29.709 70.9803 30.2896 70.6559 30.8623 70.3287C31.9033 69.7362 32.9162 70.1542 33.6669 70.6732C34.0586 70.9442 34.0976 71.2455 33.7995 71.5872C33.1472 72.3311 32.4495 73.0461 31.8471 73.8217C31.4164 74.3767 31.0527 74.9923 30.7734 75.6237C30.6626 75.8731 30.7562 76.4051 30.9482 76.5117C31.2104 76.6574 31.7769 76.6516 32.0032 76.4771C32.7133 75.9337 33.439 75.3527 33.9493 74.6564C34.9794 73.2551 36.0313 71.8827 37.5951 70.963C38.2771 70.5622 39.0668 70.2364 39.8534 70.0836C41.6919 69.7261 42.9529 70.9702 42.5815 72.6684C42.1585 74.5987 39.5225 76.8707 37.4203 77.0956C37.1503 77.1244 36.8678 77.0466 36.4105 76.999C36.2389 77.877 36.0297 78.7535 35.9267 79.6415C35.9064 79.8159 36.3044 80.2008 36.4964 80.1936C37.0754 80.1706 37.7106 80.1143 38.2084 79.8707C40.1437 78.9236 41.7215 77.5987 42.8733 75.8544C44.1531 73.9154 45.6139 72.1062 47.7083 70.8505C48.3419 70.4699 49.0989 70.2004 49.8386 70.049C50.825 69.8457 51.6069 70.506 51.674 71.443C51.7489 72.4796 51.3837 73.2234 50.5518 73.5074C50.608 73.2119 50.6829 72.9769 50.6876 72.7405C50.6923 72.4969 50.7188 72.1523 50.569 72.0341C50.4067 71.9072 49.9806 71.8914 49.7918 72.0038C49.2315 72.3325 48.64 72.6799 48.2249 73.1441C46.7079 74.8366 45.5889 76.7424 44.9568 78.8731C44.8366 79.2768 44.8226 79.7078 44.7586 80.1259C44.8398 80.2008 44.9194 80.2643 44.9989 80.3277ZM37.2158 75.1509C37.2986 75.2114 37.3828 75.272 37.4656 75.3325C38.7391 74.9548 39.8487 74.3205 40.5885 73.271C40.8288 72.9308 40.7742 72.4132 40.8538 71.9779C40.3949 72.1148 39.7832 72.1249 39.5038 72.4118C38.6704 73.2667 37.9681 74.2297 37.2158 75.1509Z" fill="black"/>
<path d="M183.257 80.3364C185.165 79.8606 186.003 78.5372 187.116 77.4214C186.948 78.0802 186.791 78.6843 186.618 79.3633C187.64 78.6554 188.106 77.3911 187.807 76.3849C187.761 76.2292 187.801 76.0129 187.887 75.8673C188.878 74.185 189.836 72.4853 190.904 70.8462C191.637 69.7203 193.585 69.8371 194.356 70.9731C194.667 71.4301 194.401 71.7083 194.074 72.0283C192.074 73.9759 190.656 76.235 189.896 78.8299C189.771 79.2551 189.786 79.7165 189.715 80.3637C192.063 79.6588 193.139 78.0211 194.198 76.3676C194.284 76.3863 194.369 76.4036 194.454 76.4224C194.376 76.924 194.417 77.4733 194.202 77.9173C193.459 79.4483 192.377 80.7674 190.84 81.6929C189.477 82.5132 187.338 81.6944 186.845 80.2181C186.785 80.0408 186.74 79.8606 186.674 79.6314C186.217 80.0913 185.802 80.482 185.418 80.8986C183.6 82.8678 180.861 82.0245 180.201 79.9327C179.733 80.3709 179.3 80.8193 178.82 81.2186C177.175 82.5824 175.088 82.1672 174.172 80.309C174.141 80.247 174.084 80.1965 174.006 80.0956C173.605 80.4445 173.232 80.7977 172.827 81.1148C170.932 82.604 169.039 82.2162 167.998 80.0927C167.128 81.0572 166.23 81.9812 164.759 82.0187C163.394 82.0533 162.418 81.3267 161.961 80.0307C161.238 80.5468 160.536 81.1206 159.759 81.5848C158.751 82.1859 157.705 82.1831 156.716 81.4824C155.86 80.877 155.489 80.0769 155.892 79.1398C156.599 77.4993 157.37 75.876 158.233 74.3003C159.049 72.8111 160.016 71.3926 161 69.8111C160.606 69.9236 160.333 70.0173 160.051 70.0807C159.511 70.2018 159.008 70.2119 158.765 69.6165C158.507 68.9865 158.677 68.3248 159.297 68.159C159.952 67.9832 160.677 67.9255 161.36 67.9659C162.069 68.0077 162.485 67.8361 162.848 67.2465C163.33 66.4623 163.876 65.6405 165.107 65.8006C165.184 65.8106 165.265 65.802 165.34 65.815C167.133 66.135 167.416 66.8414 166.258 68.1288C166.025 68.3868 165.764 68.6232 165.477 68.9087C166.002 69.4522 166.568 69.9942 166.231 70.8376C166.047 71.296 165.842 71.4502 165.429 71.0379C165.129 70.7395 164.817 70.4512 164.469 70.1211C164.363 70.2148 164.262 70.2782 164.196 70.3647C162.376 72.7578 160.67 75.2129 159.448 77.9245C159.231 78.4075 159.063 78.9149 158.946 79.4267C158.893 79.6559 158.938 80.0697 159.082 80.1345C159.308 80.2383 159.751 80.2225 159.931 80.0769C160.647 79.4988 161.402 78.9192 161.947 78.2114C163.01 76.8275 163.829 75.2748 164.961 73.9471C165.944 72.7938 167.166 71.7933 168.391 70.8448C168.934 70.4238 169.724 70.2177 170.44 70.0591C171.319 69.8645 172.138 70.3359 172.221 71.1547C172.287 71.8092 172.043 72.4983 171.868 73.1571C171.826 73.3157 171.516 73.4123 171.328 73.5377C171.272 73.5017 171.216 73.4642 171.16 73.4281C171.219 73.1874 171.277 72.9452 171.341 72.7059C171.509 72.0673 171.164 71.7155 170.523 72.0081C169.872 72.3051 169.226 72.7333 168.769 73.2479C167.26 74.9476 166.173 76.8765 165.54 79.0029C165.427 79.3777 165.459 79.79 165.401 80.4373C165.896 80.1561 166.264 80.0524 166.446 79.8231C167.168 78.9207 167.829 77.9793 168.514 77.0524C169.128 76.2205 169.733 75.3844 170.361 74.5612C170.837 73.937 171.344 74.2556 171.829 74.5656C172.31 74.8726 172.641 75.1783 172.24 75.7981C171.737 76.5752 171.32 77.4055 170.933 78.2388C170.776 78.579 170.738 78.9856 170.732 79.3633C170.715 80.2715 171.372 80.6319 172.135 80.0149C173.076 79.2551 174.064 78.4075 174.62 77.4027C176.983 73.1268 179.651 69.0269 182.526 65.0351C183.41 63.8082 184.803 63.7535 185.921 64.8404C186.345 65.2542 186.325 65.5901 185.897 66.0096C182.259 69.5819 179.637 73.7424 177.668 78.2705C177.406 78.8746 177.259 79.5204 177.023 80.2556C178.166 80.1893 178.806 79.6199 179.347 79.049C180.093 78.2648 180.759 77.4012 181.343 76.506C183.829 72.6929 186.248 68.8409 188.747 65.0351C189.54 63.8284 190.821 63.7477 191.968 64.6934C192.608 65.2196 192.638 65.4675 192.038 66.0543C190.067 67.9832 188.357 70.1038 186.996 72.4262C185.766 74.5223 184.741 76.7222 183.655 78.8875C183.466 79.2652 183.425 79.7049 183.257 80.3364Z" fill="black"/>
<path d="M7.82412 83.218C7.82412 83.5885 7.84129 83.8495 7.821 84.1075C7.75077 85.0229 7.14679 85.3559 6.21662 85.0013C4.54201 84.3627 3.77884 82.849 4.35941 81.2603C4.56542 80.6967 4.83074 80.1503 5.08357 79.5635C4.48583 79.7827 3.92398 80.0825 3.32156 80.1906C1.51742 80.5179 0.12373 79.3041 0.0129218 77.4357C-0.111932 75.3483 0.801065 73.5592 1.9029 71.8495C4.12843 68.3939 7.10933 65.7183 11.345 64.4396C13.1101 63.9076 14.9174 63.8283 16.6966 64.366C19.6697 65.2627 20.9713 67.6399 20.7169 70.1714C20.2456 74.861 17.7469 78.5659 13.7719 81.4376C12.0738 82.663 10.1683 83.4271 7.82412 83.218ZM8.27672 81.1306C9.52838 81.0426 10.5116 80.5669 11.4184 79.9744C14.5678 77.9172 16.6248 75.1378 17.6455 71.7111C18.0715 70.281 18.1886 68.8221 17.6408 67.3949C16.9806 65.6794 15.6899 64.9917 14.1932 65.1546C13.2459 65.2584 12.2533 65.5539 11.4324 65.9994C7.40742 68.1878 4.50612 71.3175 2.81902 75.3382C2.44134 76.2392 2.34302 77.2944 2.36955 78.2719C2.3992 79.3473 3.28567 79.751 4.28138 79.1743C4.9634 78.7793 5.62044 78.2286 6.05119 77.6058C7.02349 76.2003 7.83192 74.6967 8.73868 73.2507C9.79058 71.5727 10.8472 69.8961 11.963 68.2526C12.4812 67.4915 12.9431 67.4295 13.814 67.8331C14.1339 67.9816 14.4476 68.1719 14.7067 68.3997C15.3232 68.9417 15.2935 69.2819 14.6958 69.8514C13.9919 70.5217 13.2537 71.1705 12.6279 71.8999C10.3212 74.5856 9.11324 77.7226 8.27672 81.1306Z" fill="black"/>
<path d="M112.135 83.2686C108.72 83.3681 106.148 81.2907 106.412 77.4473C106.797 71.8308 109.786 67.5867 115.173 64.8866C116.728 64.1081 118.441 63.8443 120.217 64.1975C122.437 64.6386 123.39 66.0615 122.897 68.1302C122.437 70.0619 121.383 71.6218 119.613 72.7405C118.326 73.5535 116.954 73.5492 115.565 72.9682C115.336 72.8717 115.064 72.7333 114.956 72.5444C114.811 72.2892 114.735 71.9577 114.774 71.6751C114.789 71.5583 115.173 71.4257 115.403 71.4026C117.414 71.2037 119.053 70.3849 120.306 68.9231C120.561 68.6261 120.786 68.2888 120.94 67.9384C121.436 66.8125 120.915 66.1465 119.601 66.0759C117.995 65.9879 116.643 66.5559 115.471 67.4613C111.858 70.2494 109.756 73.7755 109.589 78.1826C109.572 78.6496 109.672 79.1384 109.811 79.5925C110.295 81.1667 111.651 81.8399 113.447 81.4377C116.345 80.7904 118.36 78.5516 118.593 75.7506C118.608 75.5675 118.796 75.2431 118.883 75.2489C119.17 75.2662 119.61 75.3354 119.704 75.5127C120.079 76.2292 120.487 76.973 120.622 77.7458C120.859 79.0994 120.119 80.1677 119.027 80.9995C117.032 82.5204 114.693 83.1922 112.135 83.2686Z" fill="black"/>
<path d="M90.6224 69.8876C88.7605 70.2278 88.7605 70.2278 88.3095 69.1798C86.4804 68.9938 85.7578 67.7742 86.6474 66.2662C86.9501 65.753 87.3949 65.2831 87.8678 64.8895C88.5982 64.284 89.4222 64.3316 90.1885 64.9155C91.0141 65.544 91.0297 66.0904 90.2322 66.7449C89.7359 67.1528 89.2303 67.5507 88.7184 67.9601C89.7313 67.9601 90.5787 67.9255 91.4215 67.9731C91.9084 68.0005 92.2003 67.8592 92.4063 67.4686C92.5311 67.2336 92.6934 67.0116 92.8604 66.7982C93.8499 65.5411 94.7239 65.4964 96.283 66.3008C96.7949 66.5647 96.9229 66.9568 96.5186 67.4253C96.0848 67.927 95.6665 68.4388 95.242 68.9477C96.1847 70.0245 96.258 70.4513 95.576 71.3465C95.1078 70.9428 94.6474 70.5464 94.0855 70.0635C91.8803 73.2711 89.3629 76.2552 88.5061 80.0639C89.3099 80.3998 89.7984 80.1389 90.1511 79.7626C90.9954 78.8602 91.7773 77.9073 92.5811 76.9717C92.7309 76.7972 92.8573 76.6084 92.9931 76.4253C93.0851 76.4556 93.1772 76.4859 93.2678 76.5161C93.1647 77.0048 93.146 77.5281 92.9416 77.9779C92.2689 79.4556 91.1484 80.6146 89.6938 81.4767C87.8897 82.5464 86.1261 81.9553 85.3988 79.976C84.9946 80.3595 84.6372 80.7184 84.258 81.0543C83.05 82.1269 81.9419 82.3042 80.6653 81.6439C79.5119 81.0486 78.9236 79.8203 79.3527 78.4652C80.2642 75.5892 81.8373 73 83.6602 70.5406C84.0223 70.0519 84.5982 69.9251 85.2583 70.0707C86.0324 70.2422 86.6911 70.5594 87.0063 71.2441C87.0797 71.4056 86.8315 71.7574 86.6427 71.9462C84.7511 73.8376 83.3325 75.9827 82.535 78.4565C82.3617 78.9914 82.3071 79.5594 82.1588 80.3148C84.2486 79.9198 85.0804 78.445 86.2915 77.2398C86.1261 77.6637 85.9809 78.0096 85.8561 78.3614C85.7219 78.742 85.6064 79.1269 85.5658 79.5378C86.407 78.6598 87.153 77.7574 86.8986 76.4642C86.8596 76.2624 86.9626 76.0072 87.0765 75.8155C88.2455 73.8463 89.4269 71.8828 90.6224 69.8876Z" fill="black"/>
<path d="M231.005 76.3215C232.284 74.1879 233.563 72.0557 234.877 69.863C234.629 69.9178 234.394 69.9539 234.169 70.023C233.467 70.2407 232.891 70.2422 232.657 69.4219C232.622 69.3008 232.376 69.1826 232.209 69.1509C230.857 68.8971 230.174 67.9356 230.698 66.7751C231.005 66.0946 231.513 65.4459 232.078 64.9183C232.795 64.2479 233.754 64.3316 234.523 64.9687C235.246 65.567 235.213 66.1898 234.469 66.7736C233.968 67.1672 233.507 67.6069 233.1 67.9615C233.988 67.9615 234.863 67.9976 235.733 67.9414C236.032 67.9226 236.354 67.715 236.591 67.5175C236.814 67.333 236.942 67.049 237.106 66.8068C238.113 65.3162 239.489 65.6809 240.639 66.3887C241.037 66.6338 241.112 66.9582 240.833 67.3128C240.407 67.8549 239.956 68.3796 239.466 68.9736C240.24 69.5906 240.571 70.3546 239.853 71.3969C239.339 70.9486 238.881 70.5478 238.353 70.0879C237.829 70.8001 237.265 71.4589 236.825 72.1826C235.622 74.1634 234.462 76.1672 233.309 78.1725C233.119 78.5041 232.984 78.8875 232.933 79.2595C232.892 79.5622 233.016 79.8837 233.065 80.1965C233.428 80.1187 233.885 80.1403 234.131 79.9414C234.79 79.4094 235.399 78.8111 235.951 78.1811C236.437 77.629 236.819 77.0005 237.247 76.4065C237.321 76.4181 237.395 76.4296 237.47 76.4411C237.403 76.8952 237.423 77.3796 237.253 77.7977C236.589 79.4238 235.394 80.6665 233.791 81.5531C232.014 82.5363 230.259 81.8659 229.666 80.0048C229.198 80.4243 228.753 80.8553 228.271 81.2475C227.152 82.1571 226.03 82.2667 224.844 81.6122C223.775 81.0226 223.2 79.8058 223.564 78.6165C224.449 75.7117 226.021 73.1081 227.842 70.6271C228.204 70.1355 228.731 69.9279 229.401 70.0519C230.203 70.2018 230.915 70.5074 231.241 71.2181C231.328 71.4099 231.047 71.8294 230.824 72.0471C228.919 73.9111 227.563 76.0634 226.753 78.5113C226.64 78.8529 226.545 79.2047 226.5 79.5579C226.412 80.2268 226.732 80.4632 227.335 80.0942C228.062 79.6502 228.717 79.0966 229.359 78.5444C229.754 78.2057 230.063 77.7804 230.411 77.3955C230.18 78.1148 229.949 78.8342 229.718 79.5521C230.202 79.186 230.562 78.7621 230.823 78.2907C231.163 77.6708 231.375 77.0106 231.005 76.3215Z" fill="black"/>
<path d="M199.622 79.5968C200.819 79.8707 201.927 80.025 202.951 80.3825C204.151 80.802 205.34 81.3094 206.425 81.938C208.21 82.9716 207.907 85.0144 207.099 86.2931C206.83 86.7169 206.56 86.5829 206.242 86.2816C205.357 85.4425 204.508 84.5516 203.52 83.8251C200.956 81.938 198.006 81.6727 194.893 82.284C194.574 82.346 194.244 82.3561 193.889 82.3921C193.749 81.5214 194.237 80.9779 194.823 80.5511C196.065 79.6487 197.396 78.85 198.626 77.9346C200.686 76.4007 202.696 74.8092 204.724 73.2393C204.817 73.1672 204.884 73.0677 205.011 72.9293C202.564 72.3037 200.227 72.0802 198.019 73.4022C197.496 73.715 197.232 73.5608 197.017 73.0894C196.241 71.3897 197.416 69.6987 199.481 69.7203C200.635 69.7318 201.788 69.9899 202.933 70.1744C204.631 70.4469 206.317 70.5766 208.021 70.1816C208.274 70.1225 208.691 70.2854 208.889 70.4743C209.655 71.2066 209.688 72.1984 208.873 72.9019C207.836 73.7986 206.715 74.6218 205.58 75.4161C203.887 76.604 202.15 77.7371 200.439 78.9034C200.174 79.0865 199.948 79.3186 199.622 79.5968Z" fill="black"/>
<path d="M211.948 76.9572C211.741 77.766 211.496 78.543 211.353 79.3359C211.227 80.0379 211.483 80.3032 212.245 80.2326C212.796 80.1807 213.367 80.0336 213.862 79.803C215.369 79.098 216.549 78.0139 217.649 76.852C217.776 76.7179 217.91 76.5882 218.124 76.3748C218.316 77.2614 218.13 77.9447 217.568 78.5214C216.326 79.7986 214.971 80.988 213.211 81.5949C212.373 81.8847 211.38 81.9985 210.49 81.912C208.394 81.7117 207.233 80.0898 207.809 78.161C208.675 75.2633 210.366 72.8169 213.002 71.0106C213.626 70.5824 214.412 70.2696 215.176 70.1196C217.303 69.7016 218.648 71.1014 217.938 73.0115C217.126 75.1941 215.361 76.4743 212.991 77.0826C212.892 77.1086 212.785 77.1417 212.689 77.1273C212.482 77.0956 212.284 77.0365 211.948 76.9572ZM212.671 75.1393C212.749 75.21 212.828 75.2806 212.906 75.3513C214.202 74.9418 215.364 74.3176 216.118 73.2076C216.338 72.8832 216.271 72.3902 216.335 71.975C215.914 72.0846 215.347 72.0716 215.099 72.3253C214.23 73.2148 213.471 74.1951 212.671 75.1393Z" fill="black"/>
<path d="M147.971 76.1614C147.971 76.6616 147.957 77.0869 147.974 77.5108C148.007 78.3253 148.552 79.0518 149.284 79.1931C149.961 79.3243 150.644 79.3243 151.144 78.7751C151.617 78.2532 151.567 77.6535 151.281 77.0826C150.88 76.2796 150.351 75.5242 150.022 74.6996C149.725 73.9572 149.387 73.1196 149.486 72.3714C149.767 70.2839 151.851 68.949 154.118 69.3296C154.905 69.4622 155.718 69.7736 156.371 70.1989C157.354 70.8404 157.541 71.8092 157.071 72.677C156.591 73.5636 155.557 74.0033 154.281 73.7856C154.487 73.5766 154.696 73.4368 154.796 73.2465C155.046 72.7693 155.383 72.2791 155.42 71.7775C155.445 71.4488 155.091 70.9687 154.758 70.7741C154.301 70.5088 153.805 70.7525 153.465 71.1417C152.795 71.9101 152.817 72.8125 153.071 73.6717C153.411 74.8149 153.95 75.9077 154.31 77.048C154.782 78.5357 154.79 80.0192 153.486 81.1869C152.166 82.3704 150.524 82.6227 148.784 82.1758C146.874 81.6842 145.972 80.0509 146.482 78.1321C146.8 76.9341 147.116 76.4887 147.971 76.1614Z" fill="black"/>
<path d="M196.285 64.47C197.212 64.4743 197.755 64.8462 198.109 65.4013C198.398 65.8525 198.312 66.321 197.825 66.6771C197.011 67.2739 196.19 67.8563 195.917 68.8755C195.882 69.0038 195.386 69.1322 195.139 69.0875C194.155 68.9073 193.571 67.9154 193.821 66.9928C194.084 66.0154 194.666 65.2513 195.584 64.7194C195.837 64.5738 196.149 64.5161 196.285 64.47Z" fill="black"/>
<path d="M92.4858 84.3729C92.1518 84.2172 91.8506 84.076 91.5479 83.9361C91.707 83.668 91.8693 83.4013 92.027 83.1331C92.464 82.3878 92.9649 81.667 93.313 80.8871C93.5986 80.2485 94.0434 80.0077 94.9657 80.247C95.7539 80.4517 95.9989 80.8381 95.7461 81.52C95.3824 82.4988 94.7441 83.3047 93.8124 83.8741C93.4409 84.099 92.9774 84.1927 92.4858 84.3729Z" fill="black"/>
<path d="M231.005 76.3215C231.375 77.0106 231.163 77.6709 230.823 78.2908C230.564 78.7622 230.202 79.186 229.718 79.5522C229.949 78.8328 230.18 78.1135 230.411 77.3941C230.609 77.0366 230.807 76.6791 231.005 76.3215Z" fill="black"/>
<path d="M8.27631 81.1307C9.11128 77.7213 10.3208 74.5857 12.6259 71.9029C13.2518 71.1734 13.9915 70.5262 14.6938 69.8544C15.2916 69.2849 15.3197 68.9447 14.7048 68.4027C14.4457 68.1749 14.1335 67.9846 13.812 67.8361C12.9412 67.4325 12.4792 67.493 11.9611 68.2556C10.8452 69.8976 9.78861 71.5757 8.73671 73.2537C7.82996 74.6996 7.02309 76.2018 6.04923 77.6088C5.61848 78.2301 4.96143 78.7823 4.27942 79.1773C3.2837 79.7539 2.39724 79.3503 2.36758 78.2748C2.34105 77.296 2.43938 76.2422 2.81706 75.3411C4.50259 71.3205 7.4039 68.1907 11.4289 66.0038C12.2498 65.5569 13.2424 65.2614 14.1897 65.159C15.688 64.9961 16.9787 65.6823 17.6373 67.3993C18.1851 68.8265 18.068 70.2854 17.6419 71.7155C16.6213 75.1422 14.5643 77.9216 11.4148 79.9788C10.5128 80.567 9.52954 81.0427 8.27631 81.1307Z" fill="white"/>
</g>
<defs>
<clipPath id="clip0_1406_61">
<rect width="241" height="24" fill="white" transform="translate(0 64)"/>
</clipPath>
</defs>
</svg>
