<svg width="1218" height="333" viewBox="0 0 1218 333" fill="none" xmlns="http://www.w3.org/2000/svg">
<path d="M484.526 16.2051H435.455V150.044H483.984C483.984 150.044 533.596 143.967 533.596 83.1318C533.596 22.2812 484.526 16.2051 484.526 16.2051ZM477.602 118.099H466.28V47.3899H478.859C478.859 47.3899 505.47 51.947 505.47 83.1318C505.47 114.302 477.602 118.099 477.602 118.099Z" fill="#F5F5F5" stroke="white" stroke-miterlimit="10"/>
<path d="M546.177 16.2051H576.373V67.9117L610.98 16.2051H645.575L604.056 79.3193L648.729 150.044H610.352L575.745 96.818V150.044H546.177V16.2051Z" fill="#F5F5F5" stroke="white" stroke-miterlimit="10"/>
<path d="M781.461 62.5948V23.0554C781.461 23.0554 765.729 10.8882 744.969 10.8882C724.21 10.8882 687.718 32.9439 687.718 82.7592C687.718 132.574 718.543 155.39 748.111 155.39C777.679 155.39 790.627 140.185 790.627 140.185V75.5513H740.448V103.683H759.445V122.701H740.46C740.46 122.701 717.927 117.384 717.927 83.1613C717.927 48.9384 745.61 43.6218 745.61 43.6218C770.139 43.5772 781.461 62.5948 781.461 62.5948Z" fill="#F5F5F5" stroke="white" stroke-miterlimit="10"/>
<path d="M806.633 16.2051H838.714V118.099H878.779V150.044H806.633V16.2051Z" fill="#F5F5F5" stroke="white" stroke-miterlimit="10"/>
<path d="M939.368 10.8739L878.778 150.044H910.428L917.02 132.56H957.614L965.782 150.044H996.619L939.368 10.8739ZM926.777 105.932L937.693 70.95L948.608 105.932H926.777Z" fill="#F5F5F5" stroke="white" stroke-miterlimit="10"/>
<path d="M1002.25 105.932V146.246C1002.25 146.246 1019.89 155.375 1039.4 155.375C1058.9 155.375 1074.63 136.357 1074.63 108.225C1074.63 70.9496 1025.56 64.1289 1025.56 47.3897C1025.56 30.6506 1051.99 38.2607 1064.57 54.9849V20.0025C1064.57 20.0025 1054.48 11.633 1034.67 11.633C1014.85 11.633 999.134 26.8531 999.134 47.3749C999.134 88.4334 1046.32 99.0815 1046.32 112.768C1046.32 126.454 1019.86 127.213 1002.25 105.932Z" fill="#F5F5F5" stroke="white" stroke-miterlimit="10"/>
<path d="M840.857 184.758L792.587 295.632H817.806L823.054 281.708H855.394L861.899 295.632H886.465L840.857 184.758ZM830.828 260.486L839.526 232.622L848.224 260.486H830.828Z" fill="#F5F5F5" stroke="white" stroke-miterlimit="10"/>
<path d="M890.95 260.486V292.594C890.95 292.594 904.009 297.956 919.544 297.956C935.08 297.956 946.907 285.014 946.907 262.601C946.907 232.905 909.504 227.187 909.504 213.843C909.504 200.514 930.559 206.561 940.575 219.889V192.026C940.575 192.026 932.53 185.369 916.76 185.369C900.99 185.369 888.449 197.491 888.449 213.843C888.449 246.547 926.037 255.036 926.037 265.937C926.037 276.838 904.97 277.434 890.95 260.486Z" fill="#F5F5F5" stroke="white" stroke-miterlimit="10"/>
<path d="M1085.62 105.932V146.246C1085.62 146.246 1103.26 155.375 1122.76 155.375C1142.27 155.375 1158 136.357 1158 108.225C1158 70.9496 1108.93 64.1289 1108.93 47.3897C1108.93 30.6506 1135.36 38.2607 1147.93 54.9849V20.0025C1147.93 20.0025 1137.84 11.633 1118.03 11.633C1098.22 11.633 1082.5 26.8531 1082.5 47.3749C1082.5 88.4334 1129.69 99.0815 1129.69 112.768C1129.69 126.454 1103.21 127.213 1085.62 105.932Z" fill="#F5F5F5" stroke="white" stroke-miterlimit="10"/>
<path d="M540.397 274.455C540.397 274.455 550.426 259.756 550.426 243.017C542.874 242.645 539.313 243.255 531.761 242.898C531.194 246.621 529.211 255.08 527.769 258.461C525.515 255.318 515.979 241.26 515.203 240.322C522.275 232.429 527.966 226.457 528.878 214.87C529.827 202.584 525.367 192.993 517.938 187.304C503.548 176.284 479.475 185.651 477.183 209.613C476.136 220.47 478.723 226.948 485.154 234.648C470.05 242.436 465.701 264.492 470.358 278.565C474.017 289.66 481.039 296.6 490.76 298.73C500.407 300.844 518.283 300.01 523.95 290.732C524.024 290.732 527.141 297.196 527.141 297.196H555.773L540.397 274.455ZM503.178 204.044C507.244 204.044 510.521 208.005 510.521 212.905C510.521 217.804 507.244 221.78 503.178 221.78C499.125 221.78 495.848 217.804 495.848 212.905C495.848 208.005 499.125 204.044 503.178 204.044ZM502.513 275.78C499.643 275.78 497.487 275.2 496.427 274.157C495.047 272.787 494.173 271.328 493.754 269.66C493.051 266.905 492.978 265.237 493.027 264.328C493.199 261.245 493.84 258.669 494.986 256.48C495.306 255.869 496.612 254.082 497.277 253.204L510.607 274.351C507.996 275.304 505.31 275.78 502.513 275.78Z" fill="#F5F5F5" stroke="white" stroke-miterlimit="10"/>
<path d="M580.462 188.839H605.632L623.237 237.88L641.803 188.839H666.653L623.557 301.768L580.462 188.839Z" fill="#F5F5F5" stroke="white" stroke-miterlimit="10"/>
<path d="M668.23 188.839V295.618H726.418V267.545H693.08V253.472H719.814V227.619L692.439 227.991V215.064H725.161V188.839H668.23Z" fill="#F5F5F5" stroke="white" stroke-miterlimit="10"/>
<path d="M735.854 188.839V295.618H792.6V267.158H761.653V188.839H735.854Z" fill="#F5F5F5" stroke="white" stroke-miterlimit="10"/>
<path d="M1023.68 224.684V193.887C1023.68 193.887 1015.49 184.102 999.146 184.102C966.436 184.102 951.332 213.649 951.332 239.532C951.332 265.415 962.346 299.206 999.146 299.206C1022.42 299.206 1025.25 285.892 1025.25 285.892V257.373C1025.25 257.373 1010.79 270.3 999.146 270.3C987.504 270.3 975.873 264.656 975.873 239.532C975.873 214.409 991.914 211.371 999.146 211.371C1009.83 211.371 1017.38 217.074 1023.68 224.684Z" fill="#F5F5F5" stroke="white" stroke-miterlimit="10"/>
<path d="M1074.62 184.758C1049.42 184.758 1029.01 209.569 1029.01 240.188C1029.01 270.806 1049.42 295.617 1074.62 295.617C1099.81 295.617 1120.24 270.806 1120.24 240.188C1120.24 209.569 1099.81 184.758 1074.62 184.758ZM1074.62 270.255C1062.99 270.255 1053.55 256.793 1053.55 240.188C1053.55 223.582 1062.99 210.12 1074.62 210.12C1086.26 210.12 1095.7 223.582 1095.7 240.188C1095.7 256.793 1086.26 270.255 1074.62 270.255Z" fill="#F5F5F5" stroke="white" stroke-miterlimit="10"/>
<path d="M251.124 26.0942H292.014L382.616 208.601H341.713L251.124 26.0942Z" fill="#F5F5F5" stroke="white" stroke-width="0.9758" stroke-miterlimit="10"/>
<path d="M178.153 1H219.043L322.839 208.601H281.949L178.153 1Z" fill="#F5F5F5" stroke="white" stroke-width="0.9758" stroke-miterlimit="10"/>
<path d="M240.75 264.492H428.531L448.034 226.099H271.254L240.75 264.492Z" fill="white" stroke="#F5F5F5" stroke-width="0.9758" stroke-miterlimit="10"/>
<path d="M193.563 325.328H348.5L367.509 288.454H222.811L193.563 325.328Z" fill="white" stroke="#F5F5F5" stroke-width="0.8828" stroke-miterlimit="10"/>
<path d="M104.54 121.912L182.55 30.6507L171.228 8.59497L134.108 69.4455L104.54 121.912Z" fill="#F8F8F8" stroke="#F0F0F0" stroke-miterlimit="10"/>
<path d="M76.8065 208.601L198.91 61.836L187.588 39.7802L81.2664 170.581L79.1227 188.839L48.5567 227.619L18.3604 279.325L76.8065 208.601Z" fill="#F8F8F8" stroke="#F0F0F0" stroke-miterlimit="10"/>
<path d="M92.5398 237.879L214.643 91.114L203.309 69.0582L100.388 194.914L98.2563 213.173L2 331.999H14.7512L92.5398 237.879Z" fill="#F8F8F8" stroke="#F0F0F0" stroke-miterlimit="10"/>
<path d="M121.392 248.587L228.958 118.517L218.979 98.9629L116.526 223.836L118.324 238.52L41.6323 332H52.8682L121.392 248.587Z" fill="#F8F8F8" stroke="#F0F0F0" stroke-width="0.8836" stroke-miterlimit="10"/>
<path d="M150.345 261.29L243.546 148.688L233.677 130.281L135.746 248.81L137.31 261.514L80.0098 332H92.2066L150.345 261.29Z" fill="#F8F8F8" stroke="#F0F0F0" stroke-width="0.7652" stroke-miterlimit="10"/>
<path d="M164.145 290.569L257.346 177.967L247.466 159.56L153.612 272.966L153.476 291.835L120.027 332H130.992L164.145 290.569Z" fill="#F8F8F8" stroke="#F0F0F0" stroke-width="0.7652" stroke-miterlimit="10"/>
<path d="M182.797 316.005L272.61 207.335L263.099 189.553L172.658 299.028L172.522 317.241L160.251 331.999H170.034L182.797 316.005Z" fill="#F8F8F8" stroke="#F0F0F0" stroke-width="0.738" stroke-miterlimit="10"/>
<path d="M1179.54 227.288C1174.74 227.288 1170.29 226.424 1166.19 224.696C1162.1 222.968 1158.51 220.568 1155.44 217.496C1152.37 214.36 1149.97 210.744 1148.24 206.648C1146.58 202.552 1145.74 198.136 1145.74 193.4C1145.74 188.664 1146.61 184.248 1148.34 180.152C1150.06 176.056 1152.46 172.472 1155.54 169.4C1158.61 166.264 1162.19 163.832 1166.29 162.104C1170.45 160.376 1174.93 159.512 1179.73 159.512C1184.53 159.512 1188.98 160.376 1193.07 162.104C1197.23 163.768 1200.82 166.136 1203.82 169.208C1206.9 172.28 1209.26 175.864 1210.93 179.96C1212.66 183.992 1213.52 188.408 1213.52 193.208C1213.52 198.008 1212.66 202.488 1210.93 206.648C1209.2 210.744 1206.77 214.36 1203.63 217.496C1200.56 220.568 1196.98 222.968 1192.88 224.696C1188.78 226.424 1184.34 227.288 1179.54 227.288ZM1188.56 212.024L1179.34 197.816H1189.33L1198.54 212.024H1188.56ZM1179.54 221.048C1183.44 221.048 1187.06 220.344 1190.38 218.936C1193.71 217.464 1196.62 215.48 1199.12 212.984C1201.62 210.488 1203.54 207.544 1204.88 204.152C1206.29 200.76 1206.99 197.112 1206.99 193.208C1206.99 189.304 1206.29 185.688 1204.88 182.36C1203.54 178.968 1201.65 176.056 1199.22 173.624C1196.85 171.128 1194 169.208 1190.67 167.864C1187.34 166.456 1183.7 165.752 1179.73 165.752C1175.82 165.752 1172.18 166.456 1168.78 167.864C1165.46 169.272 1162.54 171.256 1160.05 173.816C1157.62 176.312 1155.73 179.224 1154.38 182.552C1153.04 185.88 1152.37 189.496 1152.37 193.4C1152.37 197.304 1153.04 200.952 1154.38 204.344C1155.73 207.672 1157.62 210.584 1160.05 213.08C1162.48 215.576 1165.36 217.528 1168.69 218.936C1172.02 220.344 1175.63 221.048 1179.54 221.048ZM1164.94 212.024V174.776H1181.17C1186.22 174.776 1190.19 175.96 1193.07 178.328C1195.95 180.696 1197.39 183.928 1197.39 188.024C1197.39 192.312 1195.95 195.608 1193.07 197.912C1190.19 200.152 1186.22 201.272 1181.17 201.272H1174.93V212.024H1164.94ZM1174.83 193.784H1180.5C1182.74 193.784 1184.46 193.272 1185.68 192.248C1186.96 191.224 1187.6 189.816 1187.6 188.024C1187.6 186.168 1186.96 184.728 1185.68 183.704C1184.46 182.68 1182.74 182.168 1180.5 182.168H1174.83V193.784Z" fill="white"/>
</svg>
